<svg width="286" height="140" viewBox="0 0 286 140" fill="none" xmlns="http://www.w3.org/2000/svg">
<g filter="url(#filter0_d_1725_5537)">
<rect x="5" y="5" width="262" height="116" rx="21" fill="white"/>
</g>
<rect x="164" y="23" width="80" height="80" rx="13" fill="#E1E42A"/>
<path d="M215.55 79.3424L214.131 67.9864C213.715 64.6592 210.887 62.1624 207.534 62.1624H205.092H202.65C199.297 62.1624 196.469 64.6592 196.053 67.9864L194.634 79.3424C194.303 81.988 196.366 84.3248 199.032 84.3248H205.092H211.152C213.818 84.3248 215.881 81.988 215.55 79.3424Z" stroke="#074254" stroke-width="3" stroke-linecap="round" stroke-linejoin="round"/>
<path d="M205.092 53.2974C208.764 53.2974 211.741 50.3207 211.741 46.6487C211.741 42.9767 208.764 40 205.092 40C201.42 40 198.443 42.9767 198.443 46.6487C198.443 50.3207 201.42 53.2974 205.092 53.2974Z" stroke="#074254" stroke-width="3"/>
<path d="M187.361 59.9461C189.809 59.9461 191.794 57.9616 191.794 55.5137C191.794 53.0657 189.809 51.0812 187.361 51.0812C184.913 51.0812 182.929 53.0657 182.929 55.5137C182.929 57.9616 184.913 59.9461 187.361 59.9461Z" stroke="#074254" stroke-width="3"/>
<path d="M222.822 59.9461C225.27 59.9461 227.255 57.9616 227.255 55.5137C227.255 53.0657 225.27 51.0812 222.822 51.0812C220.374 51.0812 218.39 53.0657 218.39 55.5137C218.39 57.9616 220.374 59.9461 222.822 59.9461Z" stroke="#074254" stroke-width="3"/>
<path d="M187.362 66.5948H186.684C184.517 66.5948 182.668 68.1613 182.312 70.2986L181.573 74.7311C181.123 77.4329 183.206 79.8923 185.945 79.8923H194.01" stroke="#074254" stroke-width="3" stroke-linecap="round" stroke-linejoin="round"/>
<path d="M222.822 66.5948H223.499C225.666 66.5948 227.515 68.1613 227.871 70.2986L228.61 74.7311C229.06 77.4329 226.977 79.8923 224.238 79.8923C221.664 79.8923 218.6 79.8923 216.173 79.8923" stroke="#074254" stroke-width="3" stroke-linecap="round" stroke-linejoin="round"/>
<path d="M40.8248 59C38.2581 59 36.3165 58.4 34.9998 57.2C33.6998 56.0167 33.0498 54.3333 33.0498 52.15C33.0498 51.4 33.1498 50.5583 33.3498 49.625C33.5665 48.675 33.8581 47.7583 34.2248 46.875L36.6248 47.575C36.2915 48.2917 36.0248 49.0167 35.8248 49.75C35.6415 50.4833 35.5498 51.1167 35.5498 51.65C35.5498 52.7 35.9248 53.5083 36.6748 54.075C37.4248 54.6583 38.4748 54.95 39.8248 54.95H41.8248C43.2415 54.95 44.2831 54.625 44.9498 53.975C45.6165 53.325 45.9498 52.3083 45.9498 50.925C45.9498 50.5417 45.9081 50.05 45.8248 49.45C45.7415 48.85 45.6415 48.2833 45.5248 47.75L45.0248 45.425L47.7248 44.9L48.1998 47.2C48.2665 47.5 48.3248 47.8333 48.3748 48.2C48.4248 48.55 48.4665 48.9 48.4998 49.25H50.7498V52.25L49.9998 53H48.4498C48.1665 55.05 47.3998 56.5583 46.1498 57.525C44.9165 58.5083 43.1415 59 40.8248 59ZM40.5748 45.55C40.1415 45.55 39.7831 45.4167 39.4998 45.15C39.2331 44.8833 39.0998 44.4583 39.0998 43.875C39.0998 43.2917 39.2331 42.8667 39.4998 42.6C39.7831 42.3333 40.1415 42.2 40.5748 42.2H41.0748C41.5081 42.2 41.8581 42.3333 42.1248 42.6C42.4081 42.8667 42.5498 43.2917 42.5498 43.875C42.5498 44.4583 42.4081 44.8833 42.1248 45.15C41.8581 45.4167 41.5081 45.55 41.0748 45.55H40.5748ZM56.3789 58.375C55.9456 58.375 55.5872 58.2417 55.3039 57.975C55.0372 57.7083 54.9039 57.2833 54.9039 56.7C54.9039 56.1167 55.0372 55.6917 55.3039 55.425C55.5872 55.1583 55.9456 55.025 56.3789 55.025H56.8789C57.3122 55.025 57.6622 55.1583 57.9289 55.425C58.2122 55.6917 58.3539 56.1167 58.3539 56.7C58.3539 57.2833 58.2122 57.7083 57.9289 57.975C57.6622 58.2417 57.3122 58.375 56.8789 58.375H56.3789ZM52.4289 58.375C51.9956 58.375 51.6372 58.2417 51.3539 57.975C51.0872 57.7083 50.9539 57.2833 50.9539 56.7C50.9539 56.1167 51.0872 55.6917 51.3539 55.425C51.6372 55.1583 51.9956 55.025 52.4289 55.025H52.9289C53.3622 55.025 53.7122 55.1583 53.9789 55.425C54.2622 55.6917 54.4039 56.1167 54.4039 56.7C54.4039 57.2833 54.2622 57.7083 53.9789 57.975C53.7122 58.2417 53.3622 58.375 52.9289 58.375H52.4289ZM50.0039 50L50.7539 49.25H51.4789C52.0789 49.25 52.5706 49.225 52.9539 49.175C53.3539 49.125 53.6706 49.0417 53.9039 48.925C54.1539 48.7917 54.3206 48.6333 54.4039 48.45C54.5039 48.25 54.5539 48.0083 54.5539 47.725C54.5539 47.475 54.5289 47.1583 54.4789 46.775C54.4456 46.375 54.3706 45.8583 54.2539 45.225L53.8289 42.9L56.5539 42.45L56.9289 44.775C57.0122 45.225 57.0789 45.725 57.1289 46.275C57.1789 46.825 57.2039 47.3083 57.2039 47.725C57.2039 49.5417 56.7539 50.875 55.8539 51.725C54.9706 52.575 53.5122 53 51.4789 53H50.0039V50ZM59.459 55.25H60.459C61.9757 55.25 63.084 54.9417 63.784 54.325C64.5007 53.7083 64.8507 52.6833 64.834 51.25C64.834 50.8667 64.809 50.4667 64.759 50.05C64.709 49.6167 64.6423 49.1583 64.559 48.675L64.034 45.35L66.759 44.925L67.134 47.25C67.2007 47.6167 67.2507 47.9667 67.284 48.3C67.334 48.6333 67.3757 48.95 67.409 49.25H69.709V52.25L68.959 53H67.409C67.1257 54.85 66.3923 56.3083 65.209 57.375C64.0423 58.4583 62.4673 59 60.484 59H59.459V55.25ZM68.9492 50L69.6992 49.25H70.4242C71.0242 49.25 71.5159 49.225 71.8992 49.175C72.2992 49.125 72.6159 49.0417 72.8492 48.925C73.0992 48.7917 73.2659 48.6333 73.3492 48.45C73.4492 48.25 73.4992 48.0083 73.4992 47.725C73.4992 47.475 73.4742 47.1583 73.4242 46.775C73.3909 46.375 73.3159 45.8583 73.1992 45.225L72.7742 42.9L75.4992 42.45L75.8742 44.775C75.9576 45.225 76.0242 45.725 76.0742 46.275C76.1242 46.825 76.1492 47.3083 76.1492 47.725C76.1492 49.5417 75.6992 50.875 74.7992 51.725C73.9159 52.575 72.4576 53 70.4242 53H68.9492V50ZM70.7742 38.425H71.8242L71.8492 38.3C71.5159 37.9333 71.3492 37.4917 71.3492 36.975C71.3492 36.275 71.5992 35.7 72.0992 35.25C72.6159 34.7833 73.2742 34.55 74.0742 34.55C74.5576 34.55 75.0242 34.65 75.4742 34.85C75.9242 35.05 76.3159 35.325 76.6492 35.675L75.4492 37.35C75.0492 36.95 74.5909 36.75 74.0742 36.75C73.7909 36.75 73.5576 36.8167 73.3742 36.95C73.2076 37.0833 73.1242 37.2417 73.1242 37.425C73.1242 37.975 73.6992 38.25 74.8492 38.25H76.6992V40.45H70.7742V38.425ZM78.4014 34.5H81.4014V53H78.4014V34.5ZM81.4072 55.25H82.4072C83.9239 55.25 85.0322 54.9417 85.7322 54.325C86.4489 53.7083 86.7989 52.6833 86.7822 51.25C86.7822 50.8667 86.7572 50.4667 86.7072 50.05C86.6572 49.6167 86.5906 49.1583 86.5072 48.675L85.9822 45.35L88.7072 44.925L89.0822 47.25C89.1489 47.6167 89.1989 47.9667 89.2322 48.3C89.2822 48.6333 89.3239 48.95 89.3572 49.25H91.6572V52.25L90.9072 53H89.3572C89.0739 54.85 88.3406 56.3083 87.1572 57.375C85.9906 58.4583 84.4156 59 82.4322 59H81.4072V55.25ZM86.7572 42.925C86.3239 42.925 85.9656 42.7917 85.6822 42.525C85.4156 42.2583 85.2822 41.8333 85.2822 41.25C85.2822 40.6667 85.4156 40.2417 85.6822 39.975C85.9656 39.7083 86.3239 39.575 86.7572 39.575H87.2572C87.6906 39.575 88.0406 39.7083 88.3072 39.975C88.5906 40.2417 88.7322 40.6667 88.7322 41.25C88.7322 41.8333 88.5906 42.2583 88.3072 42.525C88.0406 42.7917 87.6906 42.925 87.2572 42.925H86.7572ZM90.8975 50L91.6475 49.25H92.7475C93.3808 49.25 93.7975 49.1333 93.9975 48.9C94.2141 48.65 94.3225 48.2667 94.3225 47.75V34.5H97.3225V47.75C97.3225 49.5333 96.9725 50.85 96.2725 51.7C95.5891 52.55 94.4141 52.9833 92.7475 53H90.8975V50ZM100.325 34.5H103.325V53H100.325V34.5ZM115.089 53C113.923 53 113.031 52.7083 112.414 52.125C111.798 51.5417 111.489 50.6083 111.489 49.325V47.65H114.364V49.25H118.189C119.306 49.25 119.864 48.8167 119.864 47.95C119.864 47.75 119.814 47.5417 119.714 47.325C119.614 47.0917 119.456 46.8333 119.239 46.55C119.023 46.2667 118.739 45.95 118.389 45.6C118.056 45.25 117.639 44.8417 117.139 44.375L114.664 42.075L117.214 39.325L119.239 41.325C119.856 41.9417 120.381 42.5167 120.814 43.05C121.248 43.5833 121.598 44.1083 121.864 44.625C122.131 45.1417 122.323 45.675 122.439 46.225C122.556 46.7583 122.614 47.3333 122.614 47.95C122.614 49.55 122.206 50.7917 121.389 51.675C120.573 52.5583 119.423 53 117.939 53H115.089ZM127.833 53C126.667 53 125.775 52.7083 125.158 52.125C124.542 51.5417 124.233 50.6083 124.233 49.325V47.65H127.108V49.25H130.533C131.083 49.25 131.483 49.1667 131.733 49C132 48.8333 132.133 48.5583 132.133 48.175C132.133 47.9917 132.092 47.775 132.008 47.525C131.942 47.275 131.867 47.025 131.783 46.775L129.583 40.45L132.783 39.325L135.308 46.55C135.492 47.1 135.675 47.55 135.858 47.9C136.042 48.25 136.233 48.525 136.433 48.725C136.65 48.925 136.875 49.0667 137.108 49.15C137.358 49.2167 137.65 49.25 137.983 49.25H138.733V52.25L137.983 53C137.283 53 136.675 52.95 136.158 52.85C135.642 52.75 135.175 52.5667 134.758 52.3C134.358 52.0333 133.992 51.6833 133.658 51.25C133.342 50.8167 133.033 50.2583 132.733 49.575L132.633 49.625C132.533 50.225 132.392 50.7417 132.208 51.175C132.042 51.6083 131.825 51.9583 131.558 52.225C131.292 52.4917 130.967 52.6917 130.583 52.825C130.2 52.9417 129.742 53 129.208 53H127.833ZM137.992 50L138.742 49.25H140.742V49.125C140.409 48.6417 140.151 48.125 139.967 47.575C139.801 47.025 139.717 46.4333 139.717 45.8C139.717 44.9833 139.859 44.2167 140.142 43.5C140.442 42.7833 140.842 42.1583 141.342 41.625C141.859 41.075 142.459 40.65 143.142 40.35C143.842 40.0333 144.601 39.875 145.417 39.875C146.767 39.875 147.867 40.15 148.717 40.7C149.567 41.25 150.276 42 150.842 42.95L148.167 45.325C147.801 44.7417 147.376 44.3167 146.892 44.05C146.409 43.7667 145.834 43.625 145.167 43.625C144.234 43.625 143.509 43.8167 142.992 44.2C142.476 44.5667 142.217 45.1 142.217 45.8C142.217 46.65 142.576 47.3083 143.292 47.775C144.009 48.225 145.017 48.45 146.317 48.45C146.751 48.45 147.209 48.4167 147.692 48.35C148.176 48.2833 148.617 48.1917 149.017 48.075L151.442 47.4L152.392 50.775L148.717 51.9C148.001 52.1167 147.309 52.3 146.642 52.45C145.976 52.5833 145.242 52.6917 144.442 52.775C143.642 52.8583 142.726 52.9167 141.692 52.95C140.659 52.9833 139.426 53 137.992 53V50Z" fill="#414141"/>
<path d="M83.7591 83.74V80.06H80.3791V77.7H83.7591V74.02H86.3191V77.7H89.6991V80.06H86.3191V83.74H83.7591ZM94.3513 85L99.0313 73.48H94.6713V76.02H92.1313V71.04H102.011V73.64L97.5113 85H94.3513ZM109.023 85.24C108.197 85.24 107.457 85.14 106.803 84.94C106.163 84.7267 105.623 84.44 105.183 84.08C104.743 83.72 104.403 83.2933 104.163 82.8C103.937 82.3067 103.823 81.7667 103.823 81.18C103.823 80.2867 104.07 79.56 104.563 79C105.057 78.4267 105.723 78.0267 106.563 77.8V77.64C105.883 77.3867 105.323 77 104.883 76.48C104.457 75.96 104.243 75.2933 104.243 74.48C104.243 73.9467 104.343 73.4533 104.543 73C104.757 72.5467 105.063 72.16 105.463 71.84C105.877 71.5067 106.377 71.2533 106.963 71.08C107.563 70.8933 108.25 70.8 109.023 70.8C109.797 70.8 110.477 70.8933 111.063 71.08C111.663 71.2533 112.163 71.5067 112.563 71.84C112.977 72.16 113.283 72.5467 113.483 73C113.697 73.4533 113.803 73.9467 113.803 74.48C113.803 75.2933 113.583 75.96 113.143 76.48C112.717 77 112.163 77.3867 111.483 77.64V77.8C112.323 78.0267 112.99 78.4267 113.483 79C113.977 79.56 114.223 80.2867 114.223 81.18C114.223 81.7667 114.103 82.3067 113.863 82.8C113.637 83.2933 113.303 83.72 112.863 84.08C112.423 84.44 111.877 84.7267 111.223 84.94C110.583 85.14 109.85 85.24 109.023 85.24ZM109.023 82.94C109.69 82.94 110.197 82.7867 110.543 82.48C110.903 82.16 111.083 81.72 111.083 81.16V80.76C111.083 80.2 110.903 79.7667 110.543 79.46C110.197 79.14 109.69 78.98 109.023 78.98C108.357 78.98 107.843 79.14 107.483 79.46C107.137 79.7667 106.963 80.2 106.963 80.76V81.16C106.963 81.72 107.137 82.16 107.483 82.48C107.843 82.7867 108.357 82.94 109.023 82.94ZM109.023 76.78C109.663 76.78 110.15 76.6333 110.483 76.34C110.817 76.0333 110.983 75.62 110.983 75.1V74.78C110.983 74.26 110.817 73.8533 110.483 73.56C110.15 73.2533 109.663 73.1 109.023 73.1C108.383 73.1 107.897 73.2533 107.563 73.56C107.23 73.8533 107.063 74.26 107.063 74.78V75.1C107.063 75.62 107.23 76.0333 107.563 76.34C107.897 76.6333 108.383 76.78 109.023 76.78ZM126.176 76.34C126.176 77.3267 126.022 78.2533 125.716 79.12C125.422 79.9867 125.036 80.7933 124.556 81.54C124.089 82.2733 123.556 82.9333 122.956 83.52C122.369 84.1067 121.776 84.6 121.176 85H117.036C117.889 84.3867 118.656 83.8067 119.336 83.26C120.016 82.7 120.602 82.14 121.096 81.58C121.602 81.02 122.016 80.4533 122.336 79.88C122.656 79.2933 122.889 78.6667 123.036 78L122.856 77.94C122.736 78.2067 122.589 78.4667 122.416 78.72C122.256 78.9733 122.049 79.2 121.796 79.4C121.556 79.5867 121.269 79.74 120.936 79.86C120.602 79.98 120.216 80.04 119.776 80.04C119.202 80.04 118.662 79.94 118.156 79.74C117.662 79.5267 117.229 79.2333 116.856 78.86C116.496 78.4867 116.209 78.0333 115.996 77.5C115.796 76.9667 115.696 76.3667 115.696 75.7C115.696 74.98 115.816 74.32 116.056 73.72C116.309 73.12 116.662 72.6067 117.116 72.18C117.582 71.74 118.136 71.4 118.776 71.16C119.416 70.92 120.136 70.8 120.936 70.8C121.762 70.8 122.502 70.9333 123.156 71.2C123.809 71.4533 124.356 71.8267 124.796 72.32C125.249 72.8 125.589 73.38 125.816 74.06C126.056 74.74 126.176 75.5 126.176 76.34ZM120.936 77.74C121.602 77.74 122.122 77.56 122.496 77.2C122.869 76.8267 123.056 76.3 123.056 75.62V75.26C123.056 74.58 122.869 74.06 122.496 73.7C122.122 73.3267 121.602 73.14 120.936 73.14C120.269 73.14 119.749 73.3267 119.376 73.7C119.002 74.06 118.816 74.58 118.816 75.26V75.62C118.816 76.3 119.002 76.8267 119.376 77.2C119.749 77.56 120.269 77.74 120.936 77.74ZM133.088 85.24C132.261 85.24 131.521 85.1133 130.868 84.86C130.214 84.5933 129.661 84.22 129.208 83.74C128.768 83.2467 128.428 82.66 128.188 81.98C127.961 81.3 127.848 80.54 127.848 79.7C127.848 78.7267 127.994 77.8067 128.288 76.94C128.594 76.06 128.981 75.2533 129.448 74.52C129.928 73.7733 130.461 73.1067 131.048 72.52C131.648 71.9333 132.248 71.44 132.848 71.04H136.988C136.134 71.6533 135.368 72.24 134.688 72.8C134.008 73.3467 133.414 73.9 132.908 74.46C132.414 75.02 132.001 75.5933 131.668 76.18C131.348 76.7533 131.121 77.3733 130.988 78.04L131.168 78.1C131.288 77.8333 131.428 77.5733 131.588 77.32C131.761 77.0667 131.968 76.8467 132.208 76.66C132.461 76.46 132.754 76.3 133.088 76.18C133.421 76.06 133.808 76 134.248 76C134.821 76 135.354 76.1067 135.848 76.32C136.354 76.52 136.788 76.8067 137.148 77.18C137.521 77.5533 137.808 78.0133 138.008 78.56C138.221 79.0933 138.328 79.6867 138.328 80.34C138.328 81.06 138.201 81.72 137.948 82.32C137.708 82.92 137.354 83.44 136.888 83.88C136.434 84.3067 135.888 84.64 135.248 84.88C134.608 85.12 133.888 85.24 133.088 85.24ZM133.088 82.9C133.754 82.9 134.274 82.72 134.648 82.36C135.021 81.9867 135.208 81.46 135.208 80.78V80.42C135.208 79.74 135.021 79.22 134.648 78.86C134.274 78.4867 133.754 78.3 133.088 78.3C132.421 78.3 131.901 78.4867 131.528 78.86C131.154 79.22 130.968 79.74 130.968 80.42V80.78C130.968 81.46 131.154 81.9867 131.528 82.36C131.901 82.72 132.421 82.9 133.088 82.9Z" fill="#A2A2A2"/>
<g clip-path="url(#clip0_1725_5537)">
<path d="M147.248 68.56C147.994 68.56 148.534 68.42 148.868 68.14C149.214 67.8467 149.388 67.4867 149.388 67.06V66.92C149.388 66.4133 149.221 66.0067 148.888 65.7C148.568 65.3933 148.108 65.24 147.508 65.24C146.948 65.24 146.421 65.3867 145.928 65.68C145.434 65.96 145.014 66.3667 144.668 66.9L142.788 65.14C143.054 64.7933 143.341 64.48 143.648 64.2C143.954 63.9067 144.301 63.66 144.688 63.46C145.074 63.2467 145.508 63.0867 145.988 62.98C146.468 62.86 147.008 62.8 147.608 62.8C148.354 62.8 149.028 62.8867 149.628 63.06C150.241 63.2333 150.761 63.4867 151.188 63.82C151.628 64.14 151.961 64.5267 152.188 64.98C152.428 65.4333 152.548 65.94 152.548 66.5C152.548 66.94 152.474 67.34 152.328 67.7C152.194 68.06 152.001 68.3733 151.748 68.64C151.508 68.9067 151.228 69.1267 150.908 69.3C150.588 69.46 150.248 69.5733 149.888 69.64V69.76C150.301 69.84 150.681 69.9733 151.028 70.16C151.388 70.3333 151.694 70.56 151.948 70.84C152.214 71.12 152.421 71.4533 152.568 71.84C152.714 72.2133 152.788 72.64 152.788 73.12C152.788 73.7467 152.661 74.3133 152.408 74.82C152.154 75.3267 151.794 75.76 151.328 76.12C150.861 76.48 150.301 76.76 149.648 76.96C148.994 77.1467 148.274 77.24 147.488 77.24C146.781 77.24 146.154 77.1667 145.608 77.02C145.061 76.8733 144.581 76.68 144.168 76.44C143.768 76.1867 143.414 75.9 143.108 75.58C142.814 75.26 142.554 74.92 142.328 74.56L144.548 72.84C144.854 73.4133 145.228 73.8867 145.668 74.26C146.121 74.62 146.728 74.8 147.488 74.8C148.168 74.8 148.694 74.6333 149.068 74.3C149.454 73.9533 149.648 73.4867 149.648 72.9V72.78C149.648 72.2067 149.428 71.78 148.988 71.5C148.561 71.2067 147.968 71.06 147.208 71.06H145.948V68.56H147.248Z" fill="#A2A2A2"/>
<path d="M148.748 93V90.32H142.608V87.76L148.048 79.04H151.608V88H153.368V90.32H151.608V93H148.748ZM145.008 88H148.748V82.14H148.548L145.008 88Z" fill="#A2A2A2"/>
</g>
<defs>
<filter id="filter0_d_1725_5537" x="0.7" y="0.7" width="284.6" height="138.6" filterUnits="userSpaceOnUse" color-interpolation-filters="sRGB">
<feFlood flood-opacity="0" result="BackgroundImageFix"/>
<feColorMatrix in="SourceAlpha" type="matrix" values="0 0 0 0 0 0 0 0 0 0 0 0 0 0 0 0 0 0 127 0" result="hardAlpha"/>
<feOffset dx="7" dy="7"/>
<feGaussianBlur stdDeviation="5.65"/>
<feComposite in2="hardAlpha" operator="out"/>
<feColorMatrix type="matrix" values="0 0 0 0 0 0 0 0 0 0 0 0 0 0 0 0 0 0 0.36 0"/>
<feBlend mode="normal" in2="BackgroundImageFix" result="effect1_dropShadow_1725_5537"/>
<feBlend mode="normal" in="SourceGraphic" in2="effect1_dropShadow_1725_5537" result="shape"/>
</filter>
<clipPath id="clip0_1725_5537">
<rect width="15" height="22" fill="white" transform="translate(142 67)"/>
</clipPath>
</defs>
</svg>
