<svg width="105" height="41" viewBox="0 0 105 41" fill="none" xmlns="http://www.w3.org/2000/svg">
<path d="M1.29454 4.01959C0.953341 4.77543 0.779795 5.5862 0.778451 6.08393C0.77712 6.58167 0.786523 6.75396 0.801675 6.92353C0.802808 6.93574 0.804952 6.94786 0.806093 6.96004C1.00783 9.1111 2.2958 10.5949 3.53755 11.6757C4.77931 12.7565 6.22697 13.6228 7.50144 14.4016C7.92008 14.6575 8.31486 14.9048 8.63982 15.134C8.96479 15.3633 9.12206 15.6892 9.12217 16.0338C9.12238 16.6594 8.61497 17.1666 7.98932 17.1666H0.777344V22.8309L10.973 22.8309C13.7222 22.8309 16.2018 21.3138 17.253 18.9852C17.5942 18.2293 17.7678 17.4185 17.7691 16.9208C17.7703 16.4231 17.761 16.2508 17.7458 16.0812C17.7447 16.069 17.7425 16.0569 17.7414 16.0447C17.5397 13.8936 16.2517 12.4098 15.0099 11.329C13.7682 10.2483 12.3205 9.38196 11.0461 8.60312C10.6274 8.34728 10.2326 8.09997 9.90768 7.87073C9.58272 7.64148 9.42545 7.31557 9.42533 6.97096C9.42512 6.3453 9.93253 5.83811 10.5582 5.83811H21.1687V22.8309H27.9658V5.83811H32.4973V22.8309H39.2944V5.83811H41.5601C42.8114 5.83811 43.8258 6.3453 43.8258 6.97096V22.8309H50.6229V5.83811C50.6229 2.70981 47.5797 0.173837 43.8258 0.173837L7.57447 0.173828C4.82528 0.173828 2.34574 1.69093 1.29454 4.01959Z" fill="white"/>
<path d="M60.8168 0.173828C58.0676 0.173817 55.5881 1.69068 54.5369 4.01933C54.1957 4.77518 54.0221 5.58596 54.0208 6.0837C54.0193 6.58143 54.0288 6.7538 54.044 6.92338C54.0451 6.93559 54.0473 6.94771 54.0484 6.95989C54.2501 9.11095 55.5381 10.5947 56.7799 11.6755C58.0216 12.7563 59.4693 13.6226 60.7438 14.4014C61.1624 14.6573 61.5572 14.9046 61.8821 15.1338C62.2071 15.363 62.3644 15.6892 62.3645 16.0338C62.3647 16.6594 61.8573 17.1666 61.2316 17.1666H50.6211V22.8309H64.2153C66.9645 22.8309 69.4441 21.3141 70.4953 18.9854C70.8365 18.2296 71.0101 17.4188 71.0114 16.921C71.0125 16.4233 71.0033 16.2509 70.9881 16.0814C70.987 16.0691 70.9848 16.057 70.9837 16.0448C70.782 13.8938 69.494 12.41 68.2523 11.3292C67.0105 10.2484 65.5628 9.38214 64.2884 8.6033C63.8697 8.34746 63.4749 8.10017 63.15 7.87093C62.825 7.64169 62.6678 7.31556 62.6676 6.97095C62.6674 6.34529 63.1748 5.8381 63.8005 5.8381H77.0219C75.3447 7.70522 74.4151 10.1254 74.411 12.6352C74.411 18.2661 78.9758 22.8309 84.6067 22.8309C87.1167 22.8266 89.5369 21.8966 91.4039 20.2189L91.4038 22.8309H98.201V0.173828H60.8168ZM82.341 5.8381H91.4038V14.9009L88.5717 12.0688L84.3235 16.317L80.6417 12.6352L84.8899 8.38702L82.341 5.8381Z" fill="white"/>
<path d="M100.469 20.6349C100.469 19.3246 101.53 18.4404 102.734 18.4404C103.939 18.4404 105 19.3246 105 20.6349C105 21.9451 103.939 22.8302 102.734 22.8302C101.53 22.8302 100.469 21.9451 100.469 20.6349ZM102.746 20.3869C103.132 20.3869 103.241 20.1852 103.241 20.009C103.241 19.7969 103.132 19.6319 102.746 19.6319H102.254V20.3869H102.746ZM102.254 20.7282V21.9329H101.856V19.2775H102.843C103.421 19.2775 103.687 19.5254 103.687 20.009C103.687 20.3049 103.481 20.5415 103.218 20.5755V20.5868C103.445 20.6226 103.529 20.8243 103.579 21.1901C103.615 21.4248 103.662 21.8386 103.748 21.9328H103.277C103.169 21.6849 103.181 21.3314 103.096 21.0364C103.025 20.8121 102.904 20.7282 102.639 20.7282L102.254 20.7282ZM104.566 20.6349C104.566 19.5725 103.796 18.7939 102.734 18.7939C101.674 18.7939 100.903 19.5725 100.903 20.6349C100.903 21.6972 101.674 22.4749 102.734 22.4749C103.796 22.4749 104.566 21.6972 104.566 20.6349Z" fill="white"/>
<path d="M50.6211 38.1328V27.3628H56.7826V28.1663H51.6373V32.1371H56.5647V32.9406H51.6373V37.3266H57.0122V38.1314H50.6211V38.1328Z" fill="white"/>
<path d="M57.7461 38.1324L60.7508 34.2647L57.9011 30.606H59.0562L61.3825 33.5954L63.662 30.606H64.8171L61.922 34.2647L64.9399 38.1324H63.7702L61.2743 34.9326L58.9027 38.1324H57.7461Z" fill="white"/>
<path d="M66.8971 40.9563H65.9569V32.8523C65.9569 32.1081 65.9569 31.3512 65.9102 30.6057H66.8357L66.8664 31.7367C67.4498 30.8429 68.2204 30.4277 69.3769 30.4277C71.7792 30.4277 72.81 32.3454 72.81 34.3675C72.81 36.3924 71.7792 38.31 69.3769 38.31C68.2979 38.31 67.4513 37.909 66.8971 37.0448V40.9563ZM71.8099 34.3675C71.8099 32.7619 71.1154 31.1846 69.2687 31.1846C67.5288 31.1846 66.8971 32.5684 66.8971 34.3675C66.8971 36.1679 67.5288 37.5503 69.2687 37.5503C71.1169 37.5503 71.8099 35.9745 71.8099 34.3675Z" fill="white"/>
<path d="M77.6408 31.3032C76.0851 31.3032 75.5441 32.5684 75.5441 33.8761V38.1321H74.6039V32.8198C74.6039 32.0912 74.5893 31.3498 74.5586 30.6057H75.4856L75.5455 31.6916C76.0076 30.8302 76.7796 30.4277 77.8104 30.4277C77.9493 30.4277 78.1028 30.4418 78.2418 30.4574V31.3654C78.0254 31.3329 77.8557 31.3032 77.6408 31.3032Z" fill="white"/>
<path d="M79.3912 34.5313C79.3912 36.2258 80.2217 37.6238 81.931 37.6238C83.2542 37.6238 83.8713 36.7765 84.1023 35.9293H84.9956C84.5789 37.5051 83.5774 38.31 81.8067 38.31C79.4351 38.31 78.3867 36.6141 78.3867 34.503C78.3867 32.3468 79.4804 30.4277 81.9295 30.4277C84.4093 30.4277 85.0717 32.5233 85.0717 34.5313H79.3912ZM79.4205 33.8478H84.0716C84.0716 32.375 83.3493 31.1112 81.8696 31.1112C80.5302 31.1112 79.6047 32.0912 79.4205 33.8478Z" fill="white"/>
<path d="M88.7429 38.31C87.1418 38.31 85.9414 37.58 85.9414 35.9293H86.8816C86.8816 37.0589 87.6507 37.6238 88.7911 37.6238C89.8541 37.6238 90.6846 37.1324 90.6846 36.1241C90.6846 35.2162 89.7152 34.9775 88.699 34.6951C87.4679 34.3534 86.1271 33.9806 86.1271 32.5233C86.1271 30.9036 87.5278 30.4277 88.8379 30.4277C90.3454 30.4277 91.4713 30.9912 91.5166 32.553H90.5764C90.5311 31.6619 89.8688 31.1564 88.8672 31.1564C88.082 31.1564 87.1272 31.4529 87.1272 32.4343C87.1272 33.3282 88.082 33.5809 89.0982 33.8478C90.3322 34.174 91.6862 34.5313 91.6862 35.9899C91.6848 37.6845 90.3308 38.31 88.7429 38.31Z" fill="white"/>
<path d="M95.26 38.31C93.6575 38.31 92.457 37.58 92.457 35.9293H93.3972C93.3972 37.0589 94.1663 37.6238 95.3082 37.6238C96.3712 37.6238 97.2017 37.1324 97.2017 36.1241C97.2017 35.2162 96.2308 34.9775 95.2146 34.6951C93.9835 34.3534 92.6442 33.9806 92.6442 32.5233C92.6442 30.9036 94.0449 30.4277 95.355 30.4277C96.8625 30.4277 97.9884 30.9912 98.0337 32.553H97.0935C97.0482 31.6619 96.3858 31.1564 95.3843 31.1564C94.5991 31.1564 93.6443 31.4529 93.6443 32.4343C93.6443 33.3282 94.5991 33.5809 95.6167 33.8478C96.8493 34.174 98.2047 34.5313 98.2047 35.9899C98.2018 37.6845 96.8464 38.31 95.26 38.31Z" fill="white"/>
</svg>
