<svg width="129" height="19" viewBox="0 0 129 19" fill="none" xmlns="http://www.w3.org/2000/svg">
<path d="M17.3546 18.0688L25.5545 6.92625H35.7292C36.8541 6.92625 36.8401 7.35265 36.2903 8.09885L34.2144 10.9266C33.9254 11.3165 33.4036 12.0263 35.1317 12.0263H48.7598C47.6292 13.5804 43.9487 18.0688 37.3507 18.0688H17.3546ZM64.3094 12.0234L59.8631 18.0688H48.1342L52.5806 12.0234H64.3094ZM82.2745 10.6545H53.5905L61.434 0H73.1573L68.6632 6.10991H73.8951L78.3948 0H90.1181L82.2745 10.6545ZM81.2674 12.0234L76.821 18.0688H65.0977L69.5441 12.0234H81.2674ZM0.621094 14.4079H17.896L16.9535 15.69H0.621094V14.4079ZM0.621094 12.0234H19.6521L18.7068 13.3055H0.621094V12.0234ZM0.621094 16.7924H16.1427L15.203 18.0688H0.621094V16.7924ZM128.382 15.69H111.169L112.114 14.4079H128.382V15.69ZM128.382 18.0688H109.421L110.358 16.7924H128.382V18.0688ZM113.868 12.0234H128.382V13.3083H112.925L113.868 12.0234ZM106.355 0L98.5115 10.6545H86.0869L93.9361 0H106.355ZM85.0826 12.0234C85.0826 12.0234 84.227 13.1961 83.809 13.7571C82.339 15.7489 83.6379 18.066 88.4433 18.066H107.272L111.719 12.0234H85.0826Z" fill="white"/>
</svg>
