<svg width="99" height="44" viewBox="0 0 99 44" fill="none" xmlns="http://www.w3.org/2000/svg">
<path d="M24.9434 27.3105C24.239 27.3105 23.6248 27.448 23.1102 27.7143C22.6034 27.9754 22.0218 28.4539 21.3672 29.1549V27.7942H17.7344V43.4905H21.5408L21.5382 35.3271C21.5382 32.335 22.3405 30.8352 24.2819 30.8352C24.6178 30.8352 24.9614 30.9099 25.3068 31.0448C25.9313 29.9667 26.6529 28.953 27.4612 28.0192C26.591 27.5588 25.7509 27.3105 24.9434 27.3105Z" fill="white"/>
<path d="M93.1524 35.1844L98.2971 27.7915H93.9573L90.9773 32.0712L87.9887 27.7915H83.5802L88.7782 35.2282L83.0312 43.4904H87.3719L90.9498 38.3447L94.5483 43.4904H98.9595" fill="white"/>
<mask id="mask0_1220_5383" style="mask-type:luminance" maskUnits="userSpaceOnUse" x="0" y="27" width="16" height="17">
<path d="M0 27.27H15.8337V43.8906H0V27.27Z" fill="white"/>
</mask>
<g mask="url(#mask0_1220_5383)">
<path d="M10.9744 38.988C10.1927 39.8522 9.20648 40.2783 8.01844 40.2808C6.86733 40.28 5.89662 39.841 5.11147 38.9622C4.32459 38.0851 3.93029 36.9658 3.93029 35.6086C3.93029 34.2556 4.31944 33.1517 5.09171 32.2884C5.86656 31.4242 6.83727 30.9981 8.00813 30.9981C9.20648 30.9981 10.1969 31.4225 10.9795 32.2678C11.7621 33.1182 12.0155 34.0855 12.0129 35.4531C12.0129 36.8524 11.7595 38.1272 10.9744 38.988ZM11.9829 29.5086C11.3077 28.8024 10.5732 28.2698 9.7786 27.9185C8.98571 27.5611 8.13097 27.385 7.22813 27.3833C5.26008 27.3833 3.58926 28.1581 2.21051 29.7053C0.833476 31.2541 0.147108 33.2393 0.144531 35.6627C0.144531 38.0001 0.854093 39.9578 2.27579 41.5273C3.6975 43.1019 5.38292 43.8905 7.33121 43.8905C8.20141 43.8922 9.0089 43.7307 9.75111 43.4094C10.4959 43.0864 11.2381 42.5616 11.9777 41.8271V43.4902H15.7841V27.7939H11.9829" fill="white"/>
</g>
<mask id="mask1_1220_5383" style="mask-type:luminance" maskUnits="userSpaceOnUse" x="25" y="27" width="17" height="17">
<path d="M25.7305 27.27H41.5642V43.8906H25.7305V27.27Z" fill="white"/>
</mask>
<g mask="url(#mask1_1220_5383)">
<path d="M36.6002 38.988C35.8177 39.8522 34.8298 40.2783 33.646 40.2808C32.4923 40.28 31.5225 39.841 30.7348 38.9622C29.9479 38.0851 29.5536 36.9658 29.5562 35.6086C29.5587 34.2556 29.9427 33.1517 30.7176 32.2884C31.4924 31.4242 32.4631 30.9981 33.6331 30.9981C34.8298 30.9981 35.8202 31.4225 36.6054 32.2678C37.388 33.1182 37.6379 34.0855 37.6354 35.4531C37.6354 36.8524 37.3854 38.1272 36.6002 38.988ZM37.6079 29.5086C36.9335 28.8024 36.1965 28.2698 35.4062 27.9185C34.609 27.5611 33.7594 27.385 32.8514 27.3833C30.8877 27.3833 29.2125 28.1581 27.8364 29.7053C26.4593 31.2541 25.7721 33.2393 25.7695 35.6627C25.7678 38.0001 26.4765 39.9578 27.9017 41.5273C29.3234 43.1019 31.0079 43.8905 32.9588 43.8905C33.8264 43.8922 34.6348 43.7307 35.3735 43.4094C36.1192 43.0864 36.8614 42.5616 37.6002 41.8271V43.4902H41.4074V27.7939H37.6079" fill="white"/>
</g>
<path d="M64.3154 28.177H64.3163C63.4985 27.6573 62.5527 27.3979 61.4746 27.3979C60.4318 27.397 59.4756 27.6393 58.596 28.1255C57.7181 28.6082 56.9793 29.3144 56.372 30.2481C55.9107 29.3144 55.299 28.6057 54.5388 28.122C53.7742 27.6358 52.9212 27.3936 51.9737 27.3901C51.0356 27.3901 50.1706 27.574 49.376 27.9442C48.5805 28.311 47.8589 28.8668 47.2095 29.6142V27.7939H43.4005L43.3945 43.4902H47.2018L47.2043 36.526C47.2061 35.0209 47.3341 33.9171 47.5901 33.2161C47.8486 32.516 48.2343 31.9731 48.7515 31.5822C49.2703 31.1965 49.8442 31.0007 50.479 31.0007C51.0451 31.0015 51.5322 31.1553 51.9333 31.4628C52.3345 31.7712 52.6326 32.2394 52.8336 32.8673C53.0338 33.4962 53.1343 34.509 53.1343 35.9135L53.1274 43.4902H56.9381V36.4306C56.9441 34.9333 57.0686 33.8475 57.3203 33.1723C57.5729 32.4954 57.9595 31.9671 58.4757 31.5822C58.9894 31.1991 59.5787 31.0084 60.2342 31.0084C61.0915 31.0084 61.7306 31.3237 62.1618 31.949C62.5931 32.5804 62.8061 33.7831 62.8061 35.5544L62.801 43.4902H66.6073L66.6125 34.2976C66.6125 32.412 66.4347 31.0496 66.0782 30.2146C65.7225 29.3762 65.1358 28.6967 64.3154 28.177Z" fill="white"/>
<mask id="mask2_1220_5383" style="mask-type:luminance" maskUnits="userSpaceOnUse" x="68" y="27" width="17" height="17">
<path d="M68.1758 27.27H84.2294V43.8906H68.1758V27.27Z" fill="white"/>
</mask>
<g mask="url(#mask2_1220_5383)">
<path d="M73.4805 31.6491C74.2803 31.0417 75.2097 30.7393 76.2689 30.7419C77.2491 30.7419 78.1064 31.0108 78.8409 31.5511C79.5839 32.094 80.0779 32.795 80.3279 33.6583L72.0854 33.6532C72.5124 32.6971 72.9788 32.027 73.4805 31.6491ZM79.8992 38.8641C78.8813 39.9087 77.6631 40.431 76.2457 40.431C75.0577 40.4293 74.087 40.0925 73.3199 39.425C72.5545 38.7576 72.0854 37.8582 71.9076 36.7251L84.1196 36.7328L84.1342 35.9855C84.1342 33.3998 83.3903 31.3209 81.8956 29.7412C80.4035 28.1657 78.462 27.3771 76.0756 27.3745C73.8284 27.3745 71.9574 28.1631 70.4704 29.7489C68.9792 31.3286 68.2344 33.3173 68.2344 35.7114C68.2318 38.0514 68.9792 39.9937 70.4687 41.5477C71.9574 43.1043 73.8937 43.88 76.2664 43.88C77.7954 43.8817 79.114 43.6008 80.2299 43.0373C81.3415 42.4763 82.2968 41.6044 83.094 40.431" fill="white"/>
</g>
<path d="M91.6875 16.935H95.9663V0H91.6875V16.935Z" fill="white"/>
<path d="M84.96 20.9001C85.8998 20.4181 86.7073 19.7309 87.2373 18.7061C88.0087 17.2243 88.1659 16.0792 88.1659 14.4272V3.78467H83.875L83.863 13.0657C83.863 14.4882 83.9111 16.3558 82.778 17.3926C82.3683 17.7543 81.8743 18.0077 81.3555 18.1761L83.8991 21.3459C84.2607 21.2136 84.6224 21.0693 84.96 20.9001Z" fill="white"/>
<path d="M76.0391 16.935H80.3179V0H76.0391V16.935Z" fill="white"/>
<path d="M66.6747 13.2104C65.8792 13.2104 65.2169 12.9218 64.674 12.3669C64.1319 11.7999 63.8545 11.0775 63.8545 10.197C63.8545 9.32933 64.1199 8.60602 64.6499 8.05194C65.1808 7.49787 65.8552 7.2204 66.6627 7.20837C67.471 7.20837 68.1333 7.48498 68.6642 8.05194C69.1942 8.60602 69.4597 9.32933 69.4597 10.197C69.4717 11.0654 69.2063 11.7999 68.6642 12.3669C68.1213 12.9218 67.459 13.2104 66.6747 13.2104ZM71.3882 14.8976C72.5694 13.6563 73.1595 12.1014 73.1595 10.233C73.1595 8.30536 72.5934 6.72559 71.4483 5.49632C69.2063 3.06181 64.5658 3.09789 62.2034 5.44821C60.8049 6.84672 60.1297 8.29247 60.1297 10.233V10.5947C60.1297 10.8361 60.1417 11.0405 60.1297 11.2458C60.1056 11.921 60.0335 12.2346 59.5395 12.7285C59.1057 13.1623 58.5267 13.1623 57.9246 13.1623H57.5268C57.1171 11.8248 56.4178 10.3542 55.405 9.38946C53.8141 7.87069 51.8014 7.09927 49.2818 7.09927H41.0617C41.3392 6.21962 41.8692 5.32795 42.6647 4.7249C43.4842 4.09867 44.4008 3.86931 45.4127 3.83323H52.7051V0.397949H45.4127C42.9301 0.482134 40.8813 1.2776 39.2895 2.8084C37.6024 4.42338 36.7588 6.95496 36.7588 9.60679L36.7708 10.4143H49.2938C50.3066 10.4504 51.1983 10.7399 51.9818 11.2579C52.8142 11.8128 53.199 12.8007 53.199 13.1623H32.8296C33.0701 12.2586 33.2033 11.0044 33.2033 9.40149V3.8212H28.9124V8.02789C28.9124 8.94362 28.8995 10.9684 28.683 11.8609C28.4657 12.7406 28.0809 13.1864 27.056 13.1864H24.9342C25.1876 12.2827 25.3079 11.0173 25.3079 9.40149V3.8212H21.017V8.02789C21.017 8.94362 21.005 10.9684 20.7877 11.8609C20.5712 12.7406 20.1975 13.1864 19.1606 13.1864H17.3773V3.8212H13.0864V13.0902C13.0864 14.5119 13.1345 16.3803 11.9894 17.4171C10.5428 18.7315 8.0121 18.6945 6.4332 17.7307C4.62493 16.6096 4.16621 14.3676 4.40759 12.3909C4.51583 11.5714 4.73317 10.8481 5.07077 10.233L0.828 8.85944C0.502426 9.6549 0.261037 10.5466 0.11672 11.5233C-0.799011 17.7668 3.74442 23.0825 11.2541 21.8412C11.3383 21.8291 11.4225 21.8042 11.5067 21.7922C13.5323 21.3824 15.4608 20.623 16.4366 18.7315C16.7743 18.0683 17.0036 17.5494 17.1359 16.9472H19.1606C19.8358 16.9472 20.3779 16.8991 20.8727 16.778C21.511 16.6217 22.1381 16.3923 22.717 16.0427C22.8734 15.9465 23.0177 15.8503 23.1509 15.742V16.9472H27.044C27.7192 16.9472 28.2613 16.8991 28.7552 16.778C29.4063 16.6217 30.0326 16.3923 30.5875 16.0427L30.7679 15.9224V16.9472H57.032C58.0448 16.9472 59.0456 16.9472 60.0215 16.6337C60.4793 16.4894 60.9381 16.26 61.3478 16.0066C61.6974 15.7901 61.9981 15.5487 62.2635 15.2721C64.0108 16.8021 66.6747 17.2239 68.8807 16.4653C69.8454 16.1277 70.701 15.6338 71.3882 14.8976Z" fill="white"/>
</svg>
