<svg width="286" height="140" viewBox="0 0 286 140" fill="none" xmlns="http://www.w3.org/2000/svg">
<g filter="url(#filter0_d_2099_12740)">
<rect x="5" y="5" width="262" height="116" rx="21" fill="white"/>
</g>
<rect x="26" y="23" width="80" height="80" rx="13" fill="#E1E42A"/>
<path d="M77.5494 79.3424L76.1299 67.9864C75.7139 64.6592 72.8855 62.1624 69.5326 62.1624H67.091H64.6493C61.2963 62.1624 58.4679 64.6592 58.052 67.9864L56.6325 79.3424C56.3019 81.988 58.3647 84.3248 61.0308 84.3248H67.091H73.151C75.8172 84.3248 77.8801 81.988 77.5494 79.3424Z" stroke="#074254" stroke-width="3" stroke-linecap="round" stroke-linejoin="round"/>
<path d="M67.0921 53.2974C70.7641 53.2974 73.7408 50.3207 73.7408 46.6487C73.7408 42.9767 70.7641 40 67.0921 40C63.4201 40 60.4434 42.9767 60.4434 46.6487C60.4434 50.3207 63.4201 53.2974 67.0921 53.2974Z" stroke="#074254" stroke-width="3"/>
<path d="M49.3622 59.9461C51.8102 59.9461 53.7946 57.9616 53.7946 55.5137C53.7946 53.0657 51.8102 51.0812 49.3622 51.0812C46.9142 51.0812 44.9297 53.0657 44.9297 55.5137C44.9297 57.9616 46.9142 59.9461 49.3622 59.9461Z" stroke="#074254" stroke-width="3"/>
<path d="M84.8212 59.9461C87.2691 59.9461 89.2536 57.9616 89.2536 55.5137C89.2536 53.0657 87.2691 51.0812 84.8212 51.0812C82.3732 51.0812 80.3887 53.0657 80.3887 55.5137C80.3887 57.9616 82.3732 59.9461 84.8212 59.9461Z" stroke="#074254" stroke-width="3"/>
<path d="M49.3617 66.5948H48.684C46.5173 66.5948 44.6681 68.1613 44.3119 70.2986L43.5731 74.7311C43.1228 77.4329 45.2063 79.8923 47.9453 79.8923H56.0104" stroke="#074254" stroke-width="3" stroke-linecap="round" stroke-linejoin="round"/>
<path d="M84.8225 66.5948H85.5001C87.6669 66.5948 89.5161 68.1613 89.8723 70.2986L90.6111 74.7311C91.0613 77.4329 88.9782 79.8923 86.2392 79.8923C83.6646 79.8923 80.6011 79.8923 78.1738 79.8923" stroke="#074254" stroke-width="3" stroke-linecap="round" stroke-linejoin="round"/>
<path d="M123.455 47.39L122.316 45.01H122.265V53H119.834V41.134H122.656L125.903 46.744L127.042 49.124H127.093V41.134H129.524V53H126.702L123.455 47.39ZM137.27 51.504H137.185C137.106 51.7307 136.998 51.946 136.862 52.15C136.737 52.354 136.573 52.5353 136.369 52.694C136.165 52.8527 135.921 52.9773 135.638 53.068C135.366 53.1587 135.049 53.204 134.686 53.204C133.768 53.204 133.071 52.9037 132.595 52.303C132.13 51.691 131.898 50.8183 131.898 49.685V44.075H134.414V49.464C134.414 50.008 134.51 50.4273 134.703 50.722C134.896 51.0167 135.224 51.164 135.689 51.164C135.882 51.164 136.074 51.1357 136.267 51.079C136.46 51.0223 136.63 50.943 136.777 50.841C136.924 50.7277 137.043 50.5917 137.134 50.433C137.225 50.2743 137.27 50.0873 137.27 49.872V44.075H139.786V53H137.27V51.504ZM142.127 53V44.075H144.643V45.588H144.745C144.904 45.112 145.176 44.7097 145.561 44.381C145.946 44.041 146.473 43.871 147.142 43.871C147.754 43.871 148.275 44.024 148.706 44.33C149.137 44.636 149.448 45.0837 149.641 45.673H149.692C149.771 45.4237 149.89 45.1913 150.049 44.976C150.219 44.7493 150.423 44.5567 150.661 44.398C150.899 44.2393 151.165 44.1147 151.46 44.024C151.755 43.922 152.072 43.871 152.412 43.871C153.273 43.871 153.931 44.177 154.384 44.789C154.849 45.401 155.081 46.2737 155.081 47.407V53H152.565V47.611C152.565 46.4777 152.157 45.911 151.341 45.911C150.967 45.911 150.627 46.0187 150.321 46.234C150.015 46.4493 149.862 46.778 149.862 47.22V53H147.346V47.611C147.346 46.4777 146.938 45.911 146.122 45.911C145.941 45.911 145.759 45.9393 145.578 45.996C145.408 46.0413 145.249 46.1207 145.102 46.234C144.966 46.3473 144.853 46.489 144.762 46.659C144.683 46.8177 144.643 47.0047 144.643 47.22V53H142.127ZM158.78 53.187C158.27 53.187 157.89 53.0623 157.641 52.813C157.403 52.5523 157.284 52.2237 157.284 51.827V51.487C157.284 51.0903 157.403 50.7673 157.641 50.518C157.89 50.2573 158.27 50.127 158.78 50.127C159.29 50.127 159.664 50.2573 159.902 50.518C160.151 50.7673 160.276 51.0903 160.276 51.487V51.827C160.276 52.2237 160.151 52.5523 159.902 52.813C159.664 53.0623 159.29 53.187 158.78 53.187ZM170.219 53.204C169.561 53.204 168.972 53.0963 168.451 52.881C167.941 52.6657 167.504 52.354 167.142 51.946C166.79 51.538 166.518 51.045 166.326 50.467C166.133 49.889 166.037 49.243 166.037 48.529C166.037 47.815 166.133 47.169 166.326 46.591C166.518 46.013 166.79 45.5257 167.142 45.129C167.504 44.721 167.941 44.4093 168.451 44.194C168.972 43.9787 169.561 43.871 170.219 43.871C170.876 43.871 171.46 43.9787 171.97 44.194C172.491 44.4093 172.927 44.721 173.279 45.129C173.641 45.5257 173.919 46.013 174.112 46.591C174.304 47.169 174.401 47.815 174.401 48.529C174.401 49.243 174.304 49.889 174.112 50.467C173.919 51.045 173.641 51.538 173.279 51.946C172.927 52.354 172.491 52.6657 171.97 52.881C171.46 53.0963 170.876 53.204 170.219 53.204ZM170.219 51.215C170.717 51.215 171.103 51.062 171.375 50.756C171.647 50.45 171.783 50.0137 171.783 49.447V47.628C171.783 47.0613 171.647 46.625 171.375 46.319C171.103 46.013 170.717 45.86 170.219 45.86C169.72 45.86 169.335 46.013 169.063 46.319C168.791 46.625 168.655 47.0613 168.655 47.628V49.447C168.655 50.0137 168.791 50.45 169.063 50.756C169.335 51.062 169.72 51.215 170.219 51.215ZM176.536 46.03H175.278V44.075H176.536V43.021C176.536 42.1597 176.763 41.5137 177.216 41.083C177.669 40.641 178.332 40.42 179.205 40.42H180.837V42.375H179.052V44.075H180.837V46.03H179.052V53H176.536V46.03ZM188.158 53L185.234 44.075H187.716L188.821 47.679L189.654 50.909H189.79L190.623 47.679L191.694 44.075H194.074L191.15 53H188.158ZM196.66 43.123C196.15 43.123 195.776 43.0097 195.538 42.783C195.311 42.545 195.198 42.2447 195.198 41.882V41.508C195.198 41.1453 195.311 40.8507 195.538 40.624C195.776 40.386 196.15 40.267 196.66 40.267C197.17 40.267 197.538 40.386 197.765 40.624C198.003 40.8507 198.122 41.1453 198.122 41.508V41.882C198.122 42.2447 198.003 42.545 197.765 42.783C197.538 43.0097 197.17 43.123 196.66 43.123ZM195.402 44.075H197.918V53H195.402V44.075ZM203.292 53.204C202.43 53.204 201.705 53.068 201.116 52.796C200.526 52.5127 199.999 52.116 199.535 51.606L201.014 50.11C201.331 50.4613 201.682 50.739 202.068 50.943C202.453 51.147 202.889 51.249 203.377 51.249C203.875 51.249 204.221 51.1753 204.414 51.028C204.606 50.8693 204.703 50.6597 204.703 50.399C204.703 49.9797 204.402 49.7303 203.802 49.651L202.833 49.532C200.827 49.2827 199.824 48.3647 199.824 46.778C199.824 46.3473 199.903 45.9563 200.062 45.605C200.232 45.2423 200.464 44.9363 200.759 44.687C201.065 44.4263 201.427 44.228 201.847 44.092C202.277 43.9447 202.759 43.871 203.292 43.871C203.756 43.871 204.164 43.905 204.516 43.973C204.878 44.0297 205.196 44.1203 205.468 44.245C205.751 44.3583 206.006 44.5057 206.233 44.687C206.471 44.857 206.703 45.0497 206.93 45.265L205.485 46.744C205.201 46.4607 204.878 46.2397 204.516 46.081C204.164 45.911 203.802 45.826 203.428 45.826C202.997 45.826 202.691 45.894 202.51 46.03C202.328 46.166 202.238 46.3473 202.238 46.574C202.238 46.812 202.3 46.999 202.425 47.135C202.561 47.2597 202.81 47.3503 203.173 47.407L204.176 47.543C206.136 47.8037 207.117 48.699 207.117 50.229C207.117 50.6597 207.026 51.0563 206.845 51.419C206.663 51.7817 206.403 52.099 206.063 52.371C205.734 52.6317 205.332 52.8357 204.856 52.983C204.391 53.1303 203.87 53.204 203.292 53.204ZM210.09 43.123C209.58 43.123 209.206 43.0097 208.968 42.783C208.742 42.545 208.628 42.2447 208.628 41.882V41.508C208.628 41.1453 208.742 40.8507 208.968 40.624C209.206 40.386 209.58 40.267 210.09 40.267C210.6 40.267 210.969 40.386 211.195 40.624C211.433 40.8507 211.552 41.1453 211.552 41.508V41.882C211.552 42.2447 211.433 42.545 211.195 42.783C210.969 43.0097 210.6 43.123 210.09 43.123ZM208.832 44.075H211.348V53H208.832V44.075ZM216.824 53C215.952 53 215.289 52.779 214.835 52.337C214.393 51.895 214.172 51.249 214.172 50.399V46.03H212.914V44.075H213.543C213.883 44.075 214.116 43.9957 214.24 43.837C214.365 43.667 214.427 43.429 214.427 43.123V41.661H216.688V44.075H218.456V46.03H216.688V51.045H218.32V53H216.824ZM223.759 53.204C223.102 53.204 222.512 53.0963 221.991 52.881C221.481 52.6657 221.045 52.354 220.682 51.946C220.331 51.538 220.059 51.045 219.866 50.467C219.673 49.889 219.577 49.243 219.577 48.529C219.577 47.815 219.673 47.169 219.866 46.591C220.059 46.013 220.331 45.5257 220.682 45.129C221.045 44.721 221.481 44.4093 221.991 44.194C222.512 43.9787 223.102 43.871 223.759 43.871C224.416 43.871 225 43.9787 225.51 44.194C226.031 44.4093 226.468 44.721 226.819 45.129C227.182 45.5257 227.459 46.013 227.652 46.591C227.845 47.169 227.941 47.815 227.941 48.529C227.941 49.243 227.845 49.889 227.652 50.467C227.459 51.045 227.182 51.538 226.819 51.946C226.468 52.354 226.031 52.6657 225.51 52.881C225 53.0963 224.416 53.204 223.759 53.204ZM223.759 51.215C224.258 51.215 224.643 51.062 224.915 50.756C225.187 50.45 225.323 50.0137 225.323 49.447V47.628C225.323 47.0613 225.187 46.625 224.915 46.319C224.643 46.013 224.258 45.86 223.759 45.86C223.26 45.86 222.875 46.013 222.603 46.319C222.331 46.625 222.195 47.0613 222.195 47.628V49.447C222.195 50.0137 222.331 50.45 222.603 50.756C222.875 51.062 223.26 51.215 223.759 51.215ZM229.734 53V44.075H232.25V46.013H232.335C232.38 45.7637 232.459 45.5257 232.573 45.299C232.686 45.061 232.833 44.8513 233.015 44.67C233.207 44.4887 233.434 44.347 233.695 44.245C233.955 44.1317 234.261 44.075 234.613 44.075H235.055V46.421H234.426C233.689 46.421 233.139 46.5173 232.777 46.71C232.425 46.9027 232.25 47.2597 232.25 47.781V53H229.734ZM239.633 53.204C238.771 53.204 238.046 53.068 237.457 52.796C236.867 52.5127 236.34 52.116 235.876 51.606L237.355 50.11C237.672 50.4613 238.023 50.739 238.409 50.943C238.794 51.147 239.23 51.249 239.718 51.249C240.216 51.249 240.562 51.1753 240.755 51.028C240.947 50.8693 241.044 50.6597 241.044 50.399C241.044 49.9797 240.743 49.7303 240.143 49.651L239.174 49.532C237.168 49.2827 236.165 48.3647 236.165 46.778C236.165 46.3473 236.244 45.9563 236.403 45.605C236.573 45.2423 236.805 44.9363 237.1 44.687C237.406 44.4263 237.768 44.228 238.188 44.092C238.618 43.9447 239.1 43.871 239.633 43.871C240.097 43.871 240.505 43.905 240.857 43.973C241.219 44.0297 241.537 44.1203 241.809 44.245C242.092 44.3583 242.347 44.5057 242.574 44.687C242.812 44.857 243.044 45.0497 243.271 45.265L241.826 46.744C241.542 46.4607 241.219 46.2397 240.857 46.081C240.505 45.911 240.143 45.826 239.769 45.826C239.338 45.826 239.032 45.894 238.851 46.03C238.669 46.166 238.579 46.3473 238.579 46.574C238.579 46.812 238.641 46.999 238.766 47.135C238.902 47.2597 239.151 47.3503 239.514 47.407L240.517 47.543C242.477 47.8037 243.458 48.699 243.458 50.229C243.458 50.6597 243.367 51.0563 243.186 51.419C243.004 51.7817 242.744 52.099 242.404 52.371C242.075 52.6317 241.673 52.8357 241.197 52.983C240.732 53.1303 240.211 53.204 239.633 53.204Z" fill="#414141"/>
<path d="M122.759 83.74V80.06H119.379V77.7H122.759V74.02H125.319V77.7H128.699V80.06H125.319V83.74H122.759ZM133.351 85L138.031 73.48H133.671V76.02H131.131V71.04H141.011V73.64L136.511 85H133.351ZM148.023 85.24C147.197 85.24 146.457 85.14 145.803 84.94C145.163 84.7267 144.623 84.44 144.183 84.08C143.743 83.72 143.403 83.2933 143.163 82.8C142.937 82.3067 142.823 81.7667 142.823 81.18C142.823 80.2867 143.07 79.56 143.563 79C144.057 78.4267 144.723 78.0267 145.563 77.8V77.64C144.883 77.3867 144.323 77 143.883 76.48C143.457 75.96 143.243 75.2933 143.243 74.48C143.243 73.9467 143.343 73.4533 143.543 73C143.757 72.5467 144.063 72.16 144.463 71.84C144.877 71.5067 145.377 71.2533 145.963 71.08C146.563 70.8933 147.25 70.8 148.023 70.8C148.797 70.8 149.477 70.8933 150.063 71.08C150.663 71.2533 151.163 71.5067 151.563 71.84C151.977 72.16 152.283 72.5467 152.483 73C152.697 73.4533 152.803 73.9467 152.803 74.48C152.803 75.2933 152.583 75.96 152.143 76.48C151.717 77 151.163 77.3867 150.483 77.64V77.8C151.323 78.0267 151.99 78.4267 152.483 79C152.977 79.56 153.223 80.2867 153.223 81.18C153.223 81.7667 153.103 82.3067 152.863 82.8C152.637 83.2933 152.303 83.72 151.863 84.08C151.423 84.44 150.877 84.7267 150.223 84.94C149.583 85.14 148.85 85.24 148.023 85.24ZM148.023 82.94C148.69 82.94 149.197 82.7867 149.543 82.48C149.903 82.16 150.083 81.72 150.083 81.16V80.76C150.083 80.2 149.903 79.7667 149.543 79.46C149.197 79.14 148.69 78.98 148.023 78.98C147.357 78.98 146.843 79.14 146.483 79.46C146.137 79.7667 145.963 80.2 145.963 80.76V81.16C145.963 81.72 146.137 82.16 146.483 82.48C146.843 82.7867 147.357 82.94 148.023 82.94ZM148.023 76.78C148.663 76.78 149.15 76.6333 149.483 76.34C149.817 76.0333 149.983 75.62 149.983 75.1V74.78C149.983 74.26 149.817 73.8533 149.483 73.56C149.15 73.2533 148.663 73.1 148.023 73.1C147.383 73.1 146.897 73.2533 146.563 73.56C146.23 73.8533 146.063 74.26 146.063 74.78V75.1C146.063 75.62 146.23 76.0333 146.563 76.34C146.897 76.6333 147.383 76.78 148.023 76.78ZM165.176 76.34C165.176 77.3267 165.022 78.2533 164.716 79.12C164.422 79.9867 164.036 80.7933 163.556 81.54C163.089 82.2733 162.556 82.9333 161.956 83.52C161.369 84.1067 160.776 84.6 160.176 85H156.036C156.889 84.3867 157.656 83.8067 158.336 83.26C159.016 82.7 159.602 82.14 160.096 81.58C160.602 81.02 161.016 80.4533 161.336 79.88C161.656 79.2933 161.889 78.6667 162.036 78L161.856 77.94C161.736 78.2067 161.589 78.4667 161.416 78.72C161.256 78.9733 161.049 79.2 160.796 79.4C160.556 79.5867 160.269 79.74 159.936 79.86C159.602 79.98 159.216 80.04 158.776 80.04C158.202 80.04 157.662 79.94 157.156 79.74C156.662 79.5267 156.229 79.2333 155.856 78.86C155.496 78.4867 155.209 78.0333 154.996 77.5C154.796 76.9667 154.696 76.3667 154.696 75.7C154.696 74.98 154.816 74.32 155.056 73.72C155.309 73.12 155.662 72.6067 156.116 72.18C156.582 71.74 157.136 71.4 157.776 71.16C158.416 70.92 159.136 70.8 159.936 70.8C160.762 70.8 161.502 70.9333 162.156 71.2C162.809 71.4533 163.356 71.8267 163.796 72.32C164.249 72.8 164.589 73.38 164.816 74.06C165.056 74.74 165.176 75.5 165.176 76.34ZM159.936 77.74C160.602 77.74 161.122 77.56 161.496 77.2C161.869 76.8267 162.056 76.3 162.056 75.62V75.26C162.056 74.58 161.869 74.06 161.496 73.7C161.122 73.3267 160.602 73.14 159.936 73.14C159.269 73.14 158.749 73.3267 158.376 73.7C158.002 74.06 157.816 74.58 157.816 75.26V75.62C157.816 76.3 158.002 76.8267 158.376 77.2C158.749 77.56 159.269 77.74 159.936 77.74ZM172.088 85.24C171.261 85.24 170.521 85.1133 169.868 84.86C169.214 84.5933 168.661 84.22 168.208 83.74C167.768 83.2467 167.428 82.66 167.188 81.98C166.961 81.3 166.848 80.54 166.848 79.7C166.848 78.7267 166.994 77.8067 167.288 76.94C167.594 76.06 167.981 75.2533 168.448 74.52C168.928 73.7733 169.461 73.1067 170.048 72.52C170.648 71.9333 171.248 71.44 171.848 71.04H175.988C175.134 71.6533 174.368 72.24 173.688 72.8C173.008 73.3467 172.414 73.9 171.908 74.46C171.414 75.02 171.001 75.5933 170.668 76.18C170.348 76.7533 170.121 77.3733 169.988 78.04L170.168 78.1C170.288 77.8333 170.428 77.5733 170.588 77.32C170.761 77.0667 170.968 76.8467 171.208 76.66C171.461 76.46 171.754 76.3 172.088 76.18C172.421 76.06 172.808 76 173.248 76C173.821 76 174.354 76.1067 174.848 76.32C175.354 76.52 175.788 76.8067 176.148 77.18C176.521 77.5533 176.808 78.0133 177.008 78.56C177.221 79.0933 177.328 79.6867 177.328 80.34C177.328 81.06 177.201 81.72 176.948 82.32C176.708 82.92 176.354 83.44 175.888 83.88C175.434 84.3067 174.888 84.64 174.248 84.88C173.608 85.12 172.888 85.24 172.088 85.24ZM172.088 82.9C172.754 82.9 173.274 82.72 173.648 82.36C174.021 81.9867 174.208 81.46 174.208 80.78V80.42C174.208 79.74 174.021 79.22 173.648 78.86C173.274 78.4867 172.754 78.3 172.088 78.3C171.421 78.3 170.901 78.4867 170.528 78.86C170.154 79.22 169.968 79.74 169.968 80.42V80.78C169.968 81.46 170.154 81.9867 170.528 82.36C170.901 82.72 171.421 82.9 172.088 82.9Z" fill="#A2A2A2"/>
<g clip-path="url(#clip0_2099_12740)">
<path d="M186.248 68.56C186.994 68.56 187.534 68.42 187.868 68.14C188.214 67.8467 188.388 67.4867 188.388 67.06V66.92C188.388 66.4133 188.221 66.0067 187.888 65.7C187.568 65.3933 187.108 65.24 186.508 65.24C185.948 65.24 185.421 65.3867 184.928 65.68C184.434 65.96 184.014 66.3667 183.668 66.9L181.788 65.14C182.054 64.7933 182.341 64.48 182.648 64.2C182.954 63.9067 183.301 63.66 183.688 63.46C184.074 63.2467 184.508 63.0867 184.988 62.98C185.468 62.86 186.008 62.8 186.608 62.8C187.354 62.8 188.028 62.8867 188.628 63.06C189.241 63.2333 189.761 63.4867 190.188 63.82C190.628 64.14 190.961 64.5267 191.188 64.98C191.428 65.4333 191.548 65.94 191.548 66.5C191.548 66.94 191.474 67.34 191.328 67.7C191.194 68.06 191.001 68.3733 190.748 68.64C190.508 68.9067 190.228 69.1267 189.908 69.3C189.588 69.46 189.248 69.5733 188.888 69.64V69.76C189.301 69.84 189.681 69.9733 190.028 70.16C190.388 70.3333 190.694 70.56 190.948 70.84C191.214 71.12 191.421 71.4533 191.568 71.84C191.714 72.2133 191.788 72.64 191.788 73.12C191.788 73.7467 191.661 74.3133 191.408 74.82C191.154 75.3267 190.794 75.76 190.328 76.12C189.861 76.48 189.301 76.76 188.648 76.96C187.994 77.1467 187.274 77.24 186.488 77.24C185.781 77.24 185.154 77.1667 184.608 77.02C184.061 76.8733 183.581 76.68 183.168 76.44C182.768 76.1867 182.414 75.9 182.108 75.58C181.814 75.26 181.554 74.92 181.328 74.56L183.548 72.84C183.854 73.4133 184.228 73.8867 184.668 74.26C185.121 74.62 185.728 74.8 186.488 74.8C187.168 74.8 187.694 74.6333 188.068 74.3C188.454 73.9533 188.648 73.4867 188.648 72.9V72.78C188.648 72.2067 188.428 71.78 187.988 71.5C187.561 71.2067 186.968 71.06 186.208 71.06H184.948V68.56H186.248Z" fill="#A2A2A2"/>
<path d="M187.748 93V90.32H181.608V87.76L187.048 79.04H190.608V88H192.368V90.32H190.608V93H187.748ZM184.008 88H187.748V82.14H187.548L184.008 88Z" fill="#A2A2A2"/>
</g>
<defs>
<filter id="filter0_d_2099_12740" x="0.7" y="0.7" width="284.6" height="138.6" filterUnits="userSpaceOnUse" color-interpolation-filters="sRGB">
<feFlood flood-opacity="0" result="BackgroundImageFix"/>
<feColorMatrix in="SourceAlpha" type="matrix" values="0 0 0 0 0 0 0 0 0 0 0 0 0 0 0 0 0 0 127 0" result="hardAlpha"/>
<feOffset dx="7" dy="7"/>
<feGaussianBlur stdDeviation="5.65"/>
<feComposite in2="hardAlpha" operator="out"/>
<feColorMatrix type="matrix" values="0 0 0 0 0 0 0 0 0 0 0 0 0 0 0 0 0 0 0.36 0"/>
<feBlend mode="normal" in2="BackgroundImageFix" result="effect1_dropShadow_2099_12740"/>
<feBlend mode="normal" in="SourceGraphic" in2="effect1_dropShadow_2099_12740" result="shape"/>
</filter>
<clipPath id="clip0_2099_12740">
<rect width="15" height="22" fill="white" transform="translate(181 67)"/>
</clipPath>
</defs>
</svg>
