<svg width="31" height="18" viewBox="0 0 31 18" fill="none" xmlns="http://www.w3.org/2000/svg">
<path d="M2 12.3359L6.36833 15.6121C6.94755 16.0465 7.76625 15.9472 8.22473 15.3869L19.5647 1.52686" stroke="#E1E42A" stroke-width="2.6" stroke-linecap="round"/>
<path d="M15.7883 15.5944L14.4791 14.5472L14.5439 14.468L15.8522 15.5147L16.2634 15.8436C16.0952 15.7935 15.9337 15.7108 15.7883 15.5945L15.7883 15.5944ZM17.7496 15.3875C17.6317 15.5316 17.491 15.6462 17.337 15.7303L17.6704 15.3227L28.9842 1.49468C29.0022 1.47261 29.0345 1.46958 29.0562 1.48734L29.0563 1.48742C29.0781 1.5053 29.0814 1.53747 29.0635 1.55933C29.0635 1.55935 29.0635 1.55936 29.0635 1.55938L17.7496 15.3875Z" fill="#33363F" stroke="#E1E42A" stroke-width="2.6"/>
</svg>
