<svg width="49" height="49" viewBox="0 0 49 49" fill="none" xmlns="http://www.w3.org/2000/svg">
<circle cx="24.5" cy="24.5" r="24.5" fill="#E1E42A"/>
<path d="M35.5184 20.8354L34.4771 17.0165C34.0756 15.5439 33.8748 14.8076 33.4631 14.2531C33.0529 13.7009 32.4956 13.2752 31.8551 13.0249C31.2117 12.7734 30.4486 12.7734 28.9223 12.7734M13.5312 20.8354L14.5726 17.0165C14.9741 15.5439 15.1748 14.8076 15.5866 14.2531C15.9967 13.7009 16.554 13.2752 17.1946 13.0249C17.8379 12.7734 18.6011 12.7734 20.1274 12.7734" stroke="#1C274C" stroke-width="2"/>
<path d="M20.1289 12.7734C20.1289 11.9639 20.7852 11.3076 21.5947 11.3076H27.458C28.2675 11.3076 28.9238 11.9639 28.9238 12.7734C28.9238 13.583 28.2675 14.2392 27.458 14.2392H21.5947C20.7852 14.2392 20.1289 13.583 20.1289 12.7734Z" stroke="#1C274C" stroke-width="2"/>
<path d="M18.6641 25.9658V31.8291" stroke="#1C274C" stroke-width="2" stroke-linecap="round" stroke-linejoin="round"/>
<path d="M30.3906 25.9658V31.8291" stroke="#1C274C" stroke-width="2" stroke-linecap="round" stroke-linejoin="round"/>
<path d="M24.5273 25.9658V31.8291" stroke="#1C274C" stroke-width="2" stroke-linecap="round" stroke-linejoin="round"/>
<path d="M12.6005 31.0305C13.4004 34.2299 13.8003 35.8295 14.9932 36.7609C16.186 37.6923 17.8349 37.6923 21.1328 37.6923H27.9205C31.2184 37.6923 32.8673 37.6923 34.0602 36.7609C35.253 35.8295 35.6529 34.2299 36.4528 31.0305C37.7103 26.0001 38.3392 23.4849 37.0188 21.7938C35.6983 20.1025 33.1058 20.1025 27.9205 20.1025H21.1328C15.9476 20.1025 13.355 20.1025 12.0346 21.7938C11.2595 22.7864 11.156 24.0632 11.4572 25.9658" stroke="#1C274C" stroke-width="2" stroke-linecap="round"/>
</svg>
