<svg width="21" height="21" viewBox="0 0 21 21" fill="none" xmlns="http://www.w3.org/2000/svg">
<path fill-rule="evenodd" clip-rule="evenodd" d="M19.0976 6.93955C20.2306 7.75568 21 9.02045 21 10.5C21 11.9795 20.2306 13.2453 19.0976 14.0605C19.3267 15.4369 18.9697 16.884 17.9264 17.9264C16.8811 18.9716 15.435 19.319 14.0643 19.0957C13.252 20.2325 11.9757 21 10.5 21C9.02045 21 7.75282 20.2297 6.93859 19.0947C5.56595 19.319 4.11886 18.9725 3.07268 17.9264C2.02745 16.8811 1.68 15.434 1.911 14.0605C0.778909 13.2462 0 11.9805 0 10.5C0 9.0195 0.778909 7.75282 1.911 6.93955C1.68 5.56595 2.02745 4.11886 3.07364 3.07364C4.11695 2.02936 5.565 1.67332 6.94623 1.90241C7.75568 0.767455 9.02332 0 10.5 0C11.9748 0 13.2491 0.7665 14.0624 1.90241C15.4388 1.67332 16.884 2.03127 17.9264 3.07364C18.9697 4.116 19.3276 5.56309 19.0976 6.93955ZM14.8728 6.85936C14.9748 6.93219 15.0615 7.0244 15.1279 7.13073C15.1943 7.23707 15.2391 7.35544 15.2598 7.47909C15.2804 7.60274 15.2765 7.72925 15.2483 7.8514C15.22 7.97354 15.168 8.08892 15.0952 8.19096L10.3225 14.8728C10.2419 14.9856 10.1377 15.0796 10.0172 15.148C9.8966 15.2165 9.76258 15.258 9.6244 15.2694C9.48622 15.2808 9.34721 15.2621 9.21703 15.2143C9.08685 15.1666 8.96863 15.0911 8.87059 14.993L6.00695 12.1294C5.83308 11.9494 5.73686 11.7083 5.73904 11.458C5.74121 11.2077 5.8416 10.9683 6.01858 10.7913C6.19556 10.6143 6.43497 10.5139 6.68525 10.5118C6.93553 10.5096 7.17665 10.6058 7.35668 10.7797L9.42327 12.8463L13.5412 7.08082C13.6884 6.87488 13.9114 6.73585 14.1611 6.69432C14.4108 6.65279 14.6668 6.71216 14.8728 6.85936Z" fill="#E1E42A"/>
</svg>
