<svg width="20" height="20" viewBox="0 0 20 20" fill="none" xmlns="http://www.w3.org/2000/svg">
<path d="M10 0C4.48702 0 0 4.48702 0 10C0 15.513 4.48702 20 10 20C15.513 20 20 15.513 20 10C20 4.48702 15.513 0 10 0ZM10 1.66667C10.1506 1.66667 10.3647 1.74634 10.6657 2.09635C10.9666 2.44641 11.2955 3.03826 11.5739 3.80371C11.7633 4.32451 11.9201 4.94714 12.0589 5.60872C11.4199 5.73211 10.7304 5.81055 10 5.81055C9.26919 5.81055 8.58008 5.73225 7.94108 5.60872C8.07994 4.94714 8.23673 4.32451 8.42611 3.80371C8.70445 3.03826 9.03335 2.44641 9.33431 2.09635C9.63526 1.7463 9.84939 1.66667 10 1.66667ZM12.6481 2.10612C13.7002 2.45981 14.6609 3.00998 15.4785 3.72396C15.3058 4.11714 14.886 4.54499 14.1488 4.92839C14.0039 5.0037 13.8293 5.06716 13.6654 5.13509C13.5166 4.4551 13.3477 3.80617 13.1396 3.23405C12.9914 2.82624 12.8274 2.45193 12.6481 2.10612ZM7.35026 2.10775C7.1714 2.45304 7.00837 2.82699 6.86035 3.23405C6.65249 3.80566 6.48492 4.45417 6.33626 5.13346C6.17262 5.06561 5.99751 5.00361 5.85287 4.92839C5.11563 4.54499 4.69582 4.11714 4.52311 3.72396C5.34003 3.01078 6.29947 2.46155 7.35026 2.10775ZM3.34635 4.99023C3.76785 5.56122 4.37927 6.03943 5.08464 6.40625C5.38332 6.56158 5.70751 6.69759 6.04492 6.82129C5.9481 7.56745 5.8885 8.35215 5.86263 9.16667H1.70736C1.86172 7.60438 2.45291 6.17624 3.34635 4.99023ZM16.6553 4.99186C17.5479 6.17751 18.1384 7.60518 18.2926 9.16667H14.1374C14.1115 8.35215 14.0519 7.56745 13.9551 6.82129C14.2927 6.69758 14.6183 6.5616 14.917 6.40625C15.6219 6.03966 16.2338 5.56237 16.6553 4.99186ZM7.67578 7.2526C8.40924 7.39033 9.18341 7.47721 10 7.47721C10.8159 7.47721 11.5909 7.39174 12.3242 7.25423C12.3975 7.86482 12.4458 8.50206 12.4691 9.16667H7.53092C7.55424 8.50148 7.60241 7.86367 7.67578 7.2526ZM1.70736 10.8333H5.86263C5.88784 11.6269 5.94578 12.3912 6.03841 13.1201C5.70357 13.2432 5.38116 13.3777 5.08464 13.5319C4.36672 13.9052 3.74581 14.3944 3.32357 14.9788C2.44314 13.7988 1.86039 12.3821 1.70736 10.8333ZM7.53092 10.8333H12.4691C12.4465 11.4762 12.4018 12.0929 12.3324 12.6855C11.5974 12.547 10.8202 12.461 10.0016 12.4609H10C9.18138 12.461 8.40462 12.547 7.66927 12.6855C7.59985 12.0929 7.55346 11.4763 7.53092 10.8333ZM14.1374 10.8333H18.2926C18.1396 12.3821 17.5569 13.7988 16.6764 14.9788C16.2542 14.3944 15.6333 13.9052 14.9154 13.5319C14.6188 13.3777 14.2963 13.2432 13.9616 13.1201C14.0542 12.3912 14.1122 11.6269 14.1374 10.8333ZM10 14.1276C10.735 14.1276 11.4283 14.2062 12.0703 14.3311C11.9291 15.0161 11.7689 15.66 11.5739 16.1963C11.2955 16.9617 10.9666 17.5536 10.6657 17.9036C10.3647 18.2537 10.1506 18.3333 10 18.3333C9.84939 18.3333 9.63526 18.2537 9.33431 17.9036C9.03335 17.5536 8.70445 16.9617 8.42611 16.1963C8.23109 15.66 8.07091 15.0161 7.92969 14.3311C8.57172 14.2063 9.26542 14.1276 10 14.1276ZM6.32487 14.8079C6.47589 15.5091 6.64665 16.1783 6.86035 16.7659C7.00837 17.173 7.1714 17.547 7.35026 17.8923C6.28993 17.5352 5.322 16.9791 4.50033 16.2565C4.66237 15.8519 5.08816 15.4066 5.85124 15.0098C5.99306 14.936 6.16471 14.8746 6.32487 14.8079ZM13.6751 14.8096C13.8345 14.876 14.0059 14.9363 14.1471 15.0098C14.9112 15.4071 15.3365 15.8531 15.498 16.2581C14.6765 16.9802 13.7097 17.5355 12.6497 17.8923C12.8286 17.547 12.9916 17.173 13.1396 16.7659C13.3532 16.1787 13.5242 15.5101 13.6751 14.8096Z" fill="white" fill-opacity="0.32"/>
</svg>
