<svg width="30" height="30" viewBox="0 0 30 30" fill="none" xmlns="http://www.w3.org/2000/svg">
<circle cx="15" cy="15" r="15" fill="#E1E42A"/>
<path d="M9.77778 11.6667H6M7.88889 9.77777V13.5556" stroke="#111918" stroke-width="2" stroke-linecap="round" stroke-linejoin="round"/>
<path d="M11.2305 7.88888C11.861 7.18398 12.6578 6.64809 13.5485 6.33005C14.4391 6.01201 15.3952 5.92193 16.3295 6.06803C17.2639 6.21412 18.1469 6.59175 18.8979 7.16649C19.649 7.74122 20.2442 8.49479 20.6294 9.3585C21.0146 10.2222 21.1776 11.1686 21.1033 12.1114C21.0291 13.0542 20.7201 13.9634 20.2045 14.7562C19.6889 15.549 18.983 16.2002 18.1513 16.6503C17.3196 17.1004 16.3884 17.3352 15.4427 17.3333C14.6473 17.3317 13.8612 17.1627 13.1355 16.8373C12.4098 16.5118 11.7607 16.0373 11.2305 15.4444" stroke="#111918" stroke-width="2" stroke-linecap="round" stroke-linejoin="round"/>
<path d="M11.7251 16.0583C10.5804 16.5881 9.61122 17.4342 8.93179 18.4968C8.25237 19.5595 7.89111 20.7943 7.89062 22.0556C7.89062 22.3061 7.99013 22.5463 8.16725 22.7234C8.34436 22.9005 8.58459 23 8.83507 23H22.0573C22.3078 23 22.548 22.9005 22.7251 22.7234C22.9022 22.5463 23.0017 22.3061 23.0017 22.0556C23.0004 20.7933 22.6378 19.5577 21.9566 18.495C21.2754 17.4322 20.3043 16.5867 19.1579 16.0583" stroke="#111918" stroke-width="2" stroke-linecap="round" stroke-linejoin="round"/>
</svg>
