<svg width="30" height="31" viewBox="0 0 30 31" fill="none" xmlns="http://www.w3.org/2000/svg">
<circle cx="15" cy="15.0842" r="15" fill="#E1E42A"/>
<path d="M6.2387 16.121C5.92043 15.4551 5.92043 14.681 6.2387 14.0152C6.37631 13.7272 6.61097 13.4519 7.08028 12.9012C7.26707 12.682 7.36047 12.5724 7.43891 12.4554C7.61875 12.1871 7.74356 11.8858 7.80611 11.5689C7.83341 11.4307 7.84486 11.2871 7.86777 11C7.92532 10.2788 7.9541 9.91815 8.06038 9.61727C8.30617 8.92136 8.85356 8.37399 9.54946 8.12818C9.85033 8.02191 10.211 7.99313 10.9322 7.93558C11.2193 7.91267 11.3628 7.90122 11.5011 7.87392C11.818 7.81136 12.1193 7.68655 12.3876 7.50672C12.5046 7.42828 12.6142 7.33488 12.8334 7.14809C13.3841 6.67877 13.6594 6.44412 13.9474 6.30652C14.6132 5.98824 15.3873 5.98824 16.0532 6.30652C16.3412 6.44412 16.6165 6.67877 17.1672 7.14809C17.3864 7.33488 17.496 7.42828 17.6131 7.50672C17.8814 7.68655 18.1827 7.81136 18.4995 7.87392C18.6378 7.90122 18.7813 7.91267 19.0684 7.93558C19.7897 7.99313 20.1503 8.02191 20.4512 8.12818C21.147 8.37399 21.6945 8.92136 21.9403 9.61727M8.06038 20.519C8.30617 21.2148 8.85356 21.7623 9.54946 22.0081C9.85033 22.1143 10.211 22.1431 10.9322 22.2007C11.2193 22.2235 11.3628 22.2351 11.5011 22.2623C11.818 22.3249 12.1193 22.4496 12.3876 22.6295C12.5046 22.708 12.6142 22.8013 12.8334 22.9882C13.3841 23.4575 13.6594 23.6921 13.9474 23.8298C14.6132 24.148 15.3873 24.148 16.0532 23.8298C16.3412 23.6921 16.6165 23.4575 17.1672 22.9882C17.3864 22.8013 17.496 22.708 17.6131 22.6295C17.8814 22.4496 18.1827 22.3249 18.4995 22.2623C18.6378 22.2351 18.7813 22.2235 19.0684 22.2007C19.7897 22.1431 20.1503 22.1143 20.4512 22.0081C21.147 21.7623 21.6945 21.2148 21.9403 20.519C22.0465 20.2181 22.0753 19.8575 22.1329 19.1362C22.1557 18.8492 22.1672 18.7056 22.1945 18.5674C22.257 18.2505 22.3818 17.9492 22.5617 17.6809C22.6402 17.5638 22.7335 17.4542 22.9204 17.235C23.3897 16.6843 23.6243 16.409 23.762 16.121C24.0802 15.4551 24.0802 14.681 23.762 14.0152" stroke="#001014" stroke-width="1.5" stroke-linecap="round"/>
<path d="M12.0703 17.9986L17.9303 12.1386" stroke="#001014" stroke-width="1.5" stroke-linecap="round"/>
<path d="M18.4182 17.5103C18.4182 18.0497 17.9809 18.487 17.4415 18.487C16.9021 18.487 16.4648 18.0497 16.4648 17.5103C16.4648 16.9709 16.9021 16.5336 17.4415 16.5336C17.9809 16.5336 18.4182 16.9709 18.4182 17.5103Z" fill="#001014"/>
<path d="M13.5354 12.6269C13.5354 13.1663 13.0981 13.6036 12.5587 13.6036C12.0193 13.6036 11.582 13.1663 11.582 12.6269C11.582 12.0875 12.0193 11.6503 12.5587 11.6503C13.0981 11.6503 13.5354 12.0875 13.5354 12.6269Z" fill="#001014"/>
</svg>
