<svg width="30" height="31" viewBox="0 0 30 31" fill="none" xmlns="http://www.w3.org/2000/svg">
<circle cx="15" cy="15.0842" r="15" fill="#E1E42A"/>
<path d="M23.4963 6.36312C23.2611 6.2084 22.9921 6.1148 22.713 6.09055C22.4338 6.06629 22.1531 6.11212 21.8955 6.22401L13.454 9.6044C13.2541 9.6871 13.0404 9.72962 12.8246 9.7296H7.4204C6.96683 9.7296 6.53183 9.9128 6.2111 10.2389C5.89038 10.565 5.7102 11.0073 5.7102 11.4685V11.6076H4V15.7809H5.7102V15.9618C5.72092 16.4157 5.90582 16.8473 6.22539 17.1644C6.54496 17.4816 6.97385 17.659 7.4204 17.6589L9.47264 22.0826C9.6116 22.3805 9.83038 22.6325 10.1039 22.8097C10.3773 22.9869 10.6944 23.082 11.0187 23.0842H11.8806C12.3318 23.0806 12.7633 22.8957 13.0811 22.57C13.3988 22.2443 13.5771 21.8041 13.5771 21.3453V17.8258L21.8955 21.2062C22.1001 21.289 22.3183 21.3315 22.5386 21.3314C22.8802 21.3258 23.2129 21.2195 23.4963 21.0254C23.7213 20.8709 23.9069 20.6642 24.0378 20.4223C24.1686 20.1804 24.2409 19.9102 24.2488 19.6343V7.79596C24.2475 7.51289 24.1783 7.23441 24.0472 6.98471C23.916 6.73501 23.7269 6.52164 23.4963 6.36312ZM11.8669 11.4685V15.9618H7.4204V11.4685H11.8669ZM11.8669 21.3453H11.005L9.32214 17.6589H11.8669V21.3453ZM14.0833 16.1704C13.9209 16.086 13.7515 16.0162 13.5771 15.9618V11.3711C13.7498 11.3349 13.9192 11.2837 14.0833 11.2181L22.5386 7.79596V19.5925L14.0833 16.1704ZM24.2898 11.9554V15.4331C24.7434 15.4331 25.1784 15.2499 25.4991 14.9238C25.8198 14.5977 26 14.1554 26 13.6943C26 13.2331 25.8198 12.7908 25.4991 12.4647C25.1784 12.1386 24.7434 11.9554 24.2898 11.9554Z" fill="#001014"/>
</svg>
