<svg width="30" height="30" viewBox="0 0 30 30" fill="none" xmlns="http://www.w3.org/2000/svg">
<circle cx="15" cy="15" r="15" fill="#E1E42A"/>
<path d="M9 12.3373V10.8916C9 9.29459 10.2946 8 11.8916 8C13.4885 8 14.7831 9.29459 14.7831 10.8916V19.5662C14.7831 21.1632 13.4885 22.4578 11.8916 22.4578C10.2946 22.4578 9 21.1632 9 19.5662V15.2289" stroke="#001014" stroke-linecap="round"/>
<path d="M14.7826 12.5128L17.1781 10.1174C18.3073 8.9882 20.1381 8.9882 21.2673 10.1174C22.3966 11.2467 22.3966 13.0775 21.2673 14.2067L14.2812 21.1928" stroke="#001014"/>
<path d="M16.9509 23C17.2503 23 17.493 22.7572 17.493 22.4578C17.493 22.1584 17.2503 21.9156 16.9509 21.9156V23ZM19.8424 21.9156C19.543 21.9156 19.3002 22.1584 19.3002 22.4578C19.3002 22.7572 19.543 23 19.8424 23V21.9156ZM18.7581 17.2168H20.5653V16.1325H18.7581V17.2168ZM22.9147 19.5662C22.9147 20.8637 21.8628 21.9156 20.5653 21.9156V23C22.4617 23 23.999 21.4627 23.999 19.5662H22.9147ZM23.999 19.5662C23.999 17.6698 22.4617 16.1325 20.5653 16.1325V17.2168C21.8628 17.2168 22.9147 18.2687 22.9147 19.5662H23.999ZM16.9509 21.9156H11.8906V23H16.9509V21.9156ZM20.5653 21.9156H19.8424V23H20.5653V21.9156Z" fill="#001014"/>
<path d="M12.6137 19.5662C12.6137 19.9655 12.2901 20.2891 11.8909 20.2891C11.4916 20.2891 11.168 19.9655 11.168 19.5662C11.168 19.167 11.4916 18.8434 11.8909 18.8434C12.2901 18.8434 12.6137 19.167 12.6137 19.5662Z" stroke="#001014"/>
</svg>
