<svg width="30" height="31" viewBox="0 0 30 31" fill="none" xmlns="http://www.w3.org/2000/svg">
<circle cx="15" cy="15.0842" r="15" fill="#E1E42A"/>
<path fill-rule="evenodd" clip-rule="evenodd" d="M6.6658 11.7509H7.77691V17.3064H22.2214V11.7509H23.3325V17.3064H24.1658C24.3192 17.3064 24.4436 17.4308 24.4436 17.5842V18.1397C24.4436 18.2931 24.3192 18.4175 24.1658 18.4175H5.83247C5.67905 18.4175 5.55469 18.2931 5.55469 18.1397V17.5842C5.55469 17.4308 5.67905 17.3064 5.83247 17.3064H6.6658V11.7509ZM7.22135 20.0842V23.9731H22.7769V20.0842H7.22135ZM6.6658 18.9731C6.35898 18.9731 6.11024 19.2218 6.11024 19.5286V24.5286C6.11024 24.8355 6.35898 25.0842 6.6658 25.0842H23.3325C23.6393 25.0842 23.888 24.8355 23.888 24.5286V19.5286C23.888 19.2218 23.6393 18.9731 23.3325 18.9731H6.6658Z" fill="#001014"/>
<path fill-rule="evenodd" clip-rule="evenodd" d="M7.32711 6.19534L6.1353 9.48028C6.11932 9.52434 6.11111 9.57095 6.11111 9.61806V10.9459C6.11111 11.3949 6.47082 11.7509 6.90476 11.7509C7.33872 11.7509 7.69839 11.3949 7.69839 10.9459C7.69839 10.6391 7.94717 10.3903 8.25394 10.3903C8.56078 10.3903 8.8095 10.6391 8.8095 10.9459C8.8095 11.3949 9.16922 11.7509 9.60317 11.7509C10.0371 11.7509 10.3968 11.3949 10.3968 10.9459C10.3968 10.6391 10.6456 10.3903 10.9524 10.3903C11.2592 10.3903 11.5079 10.6391 11.5079 10.9459C11.5079 11.3949 11.8677 11.7509 12.3016 11.7509C12.7353 11.7509 13.0949 11.3952 13.0952 10.9466C13.0955 10.64 13.3442 10.3915 13.6508 10.3915C13.9574 10.3915 14.2061 10.64 14.2063 10.9466C14.2067 11.3952 14.5663 11.7509 15 11.7509C15.4339 11.7509 15.7937 11.3949 15.7937 10.9459C15.7937 10.6391 16.0424 10.3903 16.3492 10.3903C16.6561 10.3903 16.9048 10.6391 16.9048 10.9459C16.9048 11.3949 17.2644 11.7509 17.6984 11.7509C18.1322 11.7509 18.4917 11.3952 18.4921 10.9466C18.4923 10.64 18.7409 10.3915 19.0476 10.3915C19.3543 10.3915 19.6029 10.64 19.6032 10.9466C19.6036 11.3952 19.9631 11.7509 20.3968 11.7509C20.8308 11.7509 21.1905 11.3949 21.1905 10.9459C21.1905 10.6391 21.4392 10.3903 21.7461 10.3903C22.0528 10.3903 22.3016 10.6391 22.3016 10.9459C22.3016 11.3949 22.6613 11.7509 23.0952 11.7509C23.5292 11.7509 23.8889 11.3949 23.8889 10.9459V9.61806C23.8889 9.57095 23.8807 9.52434 23.8647 9.48028L22.6729 6.19534H7.32711ZM22.6536 6.14198C22.6535 6.14193 22.6536 6.14203 22.6536 6.14198V6.14198ZM21.7461 12.2984C21.4018 12.6462 20.9253 12.862 20.3968 12.862C19.8683 12.862 19.3918 12.6462 19.0476 12.2984C18.7034 12.6462 18.2269 12.862 17.6984 12.862C17.1699 12.862 16.6934 12.6462 16.3492 12.2984C16.005 12.6462 15.5286 12.862 15 12.862C14.4714 12.862 13.995 12.6462 13.6508 12.2984C13.3066 12.6462 12.8301 12.862 12.3016 12.862C11.7731 12.862 11.2966 12.6462 10.9524 12.2984C10.6082 12.6462 10.1317 12.862 9.60317 12.862C9.07467 12.862 8.59817 12.6462 8.25394 12.2984C7.90978 12.6462 7.43328 12.862 6.90476 12.862C5.84842 12.862 5 11.9997 5 10.9459V9.61806C5 9.4419 5.03071 9.26701 5.09081 9.10134L6.30202 5.76289C6.44905 5.35762 6.8334 5.08423 7.26772 5.08423H22.7323C23.1666 5.08423 23.5509 5.35762 23.698 5.7629L24.9092 9.10134C24.9693 9.26701 25 9.4419 25 9.61806V10.9459C25 11.9997 24.1516 12.862 23.0952 12.862C22.5667 12.862 22.0902 12.6462 21.7461 12.2984Z" fill="#001014"/>
<path d="M8.33594 15.9174C8.33594 15.764 8.46033 15.6396 8.61372 15.6396H10.2804C10.4338 15.6396 10.5582 15.764 10.5582 15.9174V17.0285C10.5582 17.1819 10.4338 17.3063 10.2804 17.3063H8.61372C8.46033 17.3063 8.33594 17.1819 8.33594 17.0285V15.9174Z" fill="#001014"/>
<path d="M9.44531 16.4731C9.44531 16.3197 9.5697 16.1953 9.72309 16.1953H11.3898C11.5431 16.1953 11.6675 16.3197 11.6675 16.4731V17.0286C11.6675 17.182 11.5431 17.3064 11.3898 17.3064H9.72309C9.5697 17.3064 9.44531 17.182 9.44531 17.0286V16.4731Z" fill="#001014"/>
<path d="M13.8893 16.473C13.8893 16.9332 13.5162 17.3063 13.056 17.3063C12.5958 17.3063 12.2227 16.9332 12.2227 16.473C12.2227 16.0128 12.5958 15.6396 13.056 15.6396C13.5162 15.6396 13.8893 16.0128 13.8893 16.473Z" fill="#001014"/>
</svg>
