<svg width="30" height="31" viewBox="0 0 30 31" fill="none" xmlns="http://www.w3.org/2000/svg">
<circle cx="15" cy="15.0842" r="15" fill="#E1E42A"/>
<path d="M11.304 18.4939C11.4153 18.8967 11.8322 19.1331 12.235 19.0218C12.6379 18.9105 12.8743 18.4937 12.763 18.0908L11.304 18.4939ZM6.95931 7.85837C6.55656 7.74662 6.13948 7.98253 6.02774 8.38527C5.916 8.78803 6.1519 9.20511 6.55466 9.31685L6.95931 7.85837ZM24.1012 18.9588C24.5057 18.8537 24.7485 18.4405 24.6433 18.036C24.5382 17.6315 24.1251 17.3888 23.7206 17.4939L24.1012 18.9588ZM14.0199 20.8088C14.3323 21.9396 13.6466 23.1326 12.4318 23.4483L12.8125 24.9133C14.8074 24.3948 16.0264 22.388 15.4788 20.4058L14.0199 20.8088ZM12.4318 23.4483C11.2091 23.7661 9.98213 23.0564 9.6671 21.9161L8.20817 22.3191C8.75318 24.2919 10.8254 25.4297 12.8125 24.9133L12.4318 23.4483ZM9.6671 21.9161C9.35469 20.7853 10.0404 19.5923 11.2552 19.2765L10.8745 17.8116C8.87958 18.33 7.66053 20.3368 8.20817 22.3191L9.6671 21.9161ZM11.2552 19.2765C12.4779 18.9588 13.7049 19.6684 14.0199 20.8088L15.4788 20.4058C14.9338 18.433 12.8616 17.2952 10.8745 17.8116L11.2552 19.2765ZM12.763 18.0908L10.5912 10.2298L9.13229 10.6328L11.304 18.4939L12.763 18.0908ZM8.67843 8.33533L6.95931 7.85837L6.55466 9.31685L8.27378 9.79381L8.67843 8.33533ZM10.5912 10.2298C10.3358 9.30525 9.60362 8.59202 8.67843 8.33533L8.27378 9.79381C8.70322 9.91296 9.02304 10.2374 9.13229 10.6328L10.5912 10.2298ZM14.9397 21.3397L24.1012 18.9588L23.7206 17.4939L14.559 19.8748L14.9397 21.3397Z" fill="#001014"/>
<path d="M23.0679 9.38326C22.5785 7.61179 22.3338 6.72606 21.6143 6.3232C20.895 5.92033 19.9817 6.15767 18.1553 6.63233L16.218 7.13578C14.3915 7.61044 13.4783 7.84777 13.063 8.54556C12.6476 9.24334 12.8923 10.1291 13.3817 11.9005L13.9007 13.7795C14.3901 15.5509 14.6348 16.4366 15.3543 16.8395C16.0737 17.2424 16.987 17.005 18.8134 16.5304L20.7507 16.027C22.5772 15.5523 23.4904 15.315 23.9057 14.6171C24.1339 14.2339 24.1629 13.7939 24.0616 13.1815" stroke="#001014" stroke-width="1.5" stroke-linecap="round"/>
</svg>
