<svg width="30" height="30" viewBox="0 0 30 30" fill="none" xmlns="http://www.w3.org/2000/svg">
<circle cx="15" cy="15" r="15" fill="#E1E42A"/>
<path d="M17.5 18.6738C17.5 17.931 17.9013 17.2517 18.5363 16.9195L20 16.1538L15.625 7H14.375L10 16.1538L11.4638 16.9195C12.0988 17.2517 12.5 17.931 12.5 18.6738V18.7692H11.25V24H18.75V18.7692H17.5V18.6738ZM12.0225 15.7498L11.6769 15.5693L14.375 9.924V14.8462H15.625V9.924L18.3231 15.5687L17.9775 15.7491C16.9119 16.3068 16.25 17.4275 16.25 18.6738V18.7692H13.75V18.6738C13.75 17.4275 13.0881 16.3068 12.0225 15.7498ZM17.5 22.6923H12.5V20.0769H17.5V22.6923Z" fill="#111918"/>
</svg>
