<svg width="30" height="30" viewBox="0 0 30 30" fill="none" xmlns="http://www.w3.org/2000/svg">
<circle cx="15" cy="15" r="15" fill="#E1E42A"/>
<path d="M12.6603 13.67C12.5626 13.6602 12.4453 13.6602 12.3378 13.67C10.0114 13.5918 8.16406 11.6858 8.16406 9.33989C8.16406 6.94513 10.0994 5 12.504 5C14.8987 5 16.8438 6.94513 16.8438 9.33989C16.834 11.6858 14.9866 13.5918 12.6603 13.67Z" stroke="#111918" stroke-width="2" stroke-linecap="round" stroke-linejoin="round"/>
<path opacity="0.4" d="M19.7443 6.95483C21.6405 6.95483 23.1653 8.48944 23.1653 10.3759C23.1653 12.2233 21.6992 13.7286 19.8713 13.797C19.7931 13.7872 19.7052 13.7872 19.6172 13.797" stroke="#111918" stroke-width="2" stroke-linecap="round" stroke-linejoin="round"/>
<path d="M7.77408 17.2768C5.40864 18.8603 5.40864 21.4407 7.77408 23.0144C10.4621 24.813 14.8704 24.813 17.5584 23.0144C19.9238 21.431 19.9238 18.8505 17.5584 17.2768C14.8802 15.4881 10.4718 15.4881 7.77408 17.2768Z" stroke="#111918" stroke-width="2" stroke-linecap="round" stroke-linejoin="round"/>
<path opacity="0.4" d="M21.6328 22.5942C22.3366 22.4476 23.0012 22.1641 23.5486 21.7438C25.0734 20.6002 25.0734 18.7137 23.5486 17.5701C23.011 17.1596 22.3561 16.8859 21.6621 16.7295" stroke="#111918" stroke-width="2" stroke-linecap="round" stroke-linejoin="round"/>
</svg>
