<svg width="30" height="31" viewBox="0 0 30 31" fill="none" xmlns="http://www.w3.org/2000/svg">
<circle cx="15" cy="15.0842" r="15" fill="#E1E42A"/>
<path d="M23.762 13.6556V18.0366C23.762 21.1032 22.0096 22.4175 19.3811 22.4175H10.6192C7.99065 22.4175 6.23828 21.1032 6.23828 18.0366V11.9033C6.23828 8.83662 7.99065 7.52234 10.6192 7.52234H16.7525" stroke="#001014" stroke-width="1.5" stroke-miterlimit="10" stroke-linecap="round" stroke-linejoin="round"/>
<path d="M10.6211 12.3413L13.3636 14.5318C14.266 15.2502 15.7468 15.2502 16.6492 14.5318L17.6831 13.7082" stroke="#001014" stroke-width="1.5" stroke-miterlimit="10" stroke-linecap="round" stroke-linejoin="round"/>
<path d="M21.5733 11.4652C22.783 11.4652 23.7637 10.4844 23.7637 9.27469C23.7637 8.06493 22.783 7.08423 21.5733 7.08423C20.3635 7.08423 19.3828 8.06493 19.3828 9.27469C19.3828 10.4844 20.3635 11.4652 21.5733 11.4652Z" stroke="#001014" stroke-width="1.5" stroke-miterlimit="10" stroke-linecap="round" stroke-linejoin="round"/>
</svg>
