<svg width="30" height="30" viewBox="0 0 30 30" fill="none" xmlns="http://www.w3.org/2000/svg">
<circle cx="15" cy="15" r="15" fill="#E1E42A"/>
<path fill-rule="evenodd" clip-rule="evenodd" d="M12.1474 13.0514C11.7859 11.4245 13.639 10.2225 14.9771 11.216L21.3879 15.9755C22.6152 16.8867 22.2196 18.8163 20.7329 19.1711L19.4957 19.4663L21.6718 22.5819C21.9563 22.9893 21.8567 23.5503 21.4492 23.8348C21.0419 24.1194 20.4808 24.0198 20.1963 23.6124L17.9009 20.3259L16.8927 21.4086C15.9052 22.4691 14.1332 21.9872 13.8188 20.5725L12.1474 13.0514ZM20.3151 17.4205L13.9042 12.661L15.5756 20.1821L17.3427 18.2845L17.5279 18.0857L17.7923 18.0226L20.3151 17.4205Z" fill="#001014"/>
<path d="M15.2597 9.67807L17.3095 8.16943M8.59766 14.5811L10.6475 13.0725" stroke="#001014" stroke-width="2" stroke-linecap="round"/>
<path d="M15.2597 9.67807L17.3095 8.16943M8.59766 14.5811L10.6475 13.0725" stroke="#001014" stroke-width="2" stroke-linecap="round"/>
<path d="M8 9.20587L10.3314 10.2268" stroke="#001014" stroke-width="2" stroke-linecap="round"/>
<path d="M12.3555 6L12.6371 8.52954" stroke="#001014" stroke-width="2" stroke-linecap="round"/>
</svg>
