<svg width="30" height="31" viewBox="0 0 30 31" fill="none" xmlns="http://www.w3.org/2000/svg">
<circle cx="15" cy="15.0842" r="15" fill="#E1E42A"/>
<path d="M22.4829 12.0924L21.7748 9.49542C21.5017 8.49406 21.3652 7.99338 21.0852 7.61631C20.8063 7.2408 20.4273 6.95134 19.9917 6.78107C19.5542 6.61011 19.0353 6.61011 17.9974 6.61011M7.53125 12.0924L8.23936 9.49542C8.5124 8.49406 8.64891 7.99338 8.92894 7.61631C9.20782 7.2408 9.58676 6.95134 10.0224 6.78107C10.4599 6.61011 10.9788 6.61011 12.0167 6.61011" stroke="#001014" stroke-width="1.5"/>
<path d="M12.0156 6.61006C12.0156 6.05956 12.4619 5.61328 13.0124 5.61328H16.9995C17.55 5.61328 17.9963 6.05956 17.9963 6.61006C17.9963 7.16055 17.55 7.60683 16.9995 7.60683H13.0124C12.4619 7.60683 12.0156 7.16055 12.0156 6.61006Z" stroke="#001014" stroke-width="1.5"/>
<path d="M11.0156 15.5811V19.5682" stroke="#001014" stroke-width="1.5" stroke-linecap="round" stroke-linejoin="round"/>
<path d="M18.9922 15.5811V19.5682" stroke="#001014" stroke-width="1.5" stroke-linecap="round" stroke-linejoin="round"/>
<path d="M15.0039 15.5811V19.5682" stroke="#001014" stroke-width="1.5" stroke-linecap="round" stroke-linejoin="round"/>
<path d="M6.89556 19.0251C7.43947 21.2007 7.71143 22.2885 8.52259 22.9219C9.33375 23.5552 10.455 23.5552 12.6976 23.5552H17.3134C19.556 23.5552 20.6773 23.5552 21.4884 22.9219C22.2996 22.2885 22.5715 21.2007 23.1155 19.0251C23.9706 15.6044 24.3982 13.894 23.5003 12.744C22.6024 11.5939 20.8394 11.5939 17.3134 11.5939H12.6976C9.17165 11.5939 7.40865 11.5939 6.51072 12.744C5.98363 13.419 5.91329 14.2872 6.11806 15.581" stroke="#001014" stroke-width="1.5" stroke-linecap="round"/>
</svg>
