<svg width="30" height="30" viewBox="0 0 30 30" fill="none" xmlns="http://www.w3.org/2000/svg">
<circle cx="15" cy="15" r="15" fill="#E1E42A"/>
<path d="M22.2648 8.51591H21.3774V7.77558C21.3766 6.79913 20.5774 6 19.6018 6H6.77558C5.79996 6 5 6.79913 5 7.77558V20.6018C5 21.5775 5.79996 22.3782 6.77558 22.3782H7.66376V23.1185C7.66376 24.0942 8.46289 24.8933 9.43934 24.8933H22.2647C23.2412 24.8933 24.0412 24.0933 24.0412 23.1185V10.2915C24.0412 9.31504 23.2412 8.51591 22.2648 8.51591ZM6.34415 9.68112H20.0332V20.8551H6.34415V9.68112ZM9.00795 23.3694V22.3782H19.6018C20.5766 22.3782 21.3774 21.5783 21.3774 20.6018V12.1962H22.697V23.3685H9.00795V23.3694Z" fill="#111918"/>
<path d="M9.86652 15.8291C9.9605 16.3201 10.1509 16.7761 10.4197 17.1748L9.46449 18.1309L10.4409 19.1057L11.3961 18.1497C11.7949 18.4209 12.2517 18.6097 12.7411 18.7053V20.06H14.1204V18.7053C14.6115 18.6105 15.0666 18.4209 15.4654 18.1497L16.4214 19.1057L17.3979 18.1309L16.4418 17.1748C16.7123 16.7761 16.9018 16.3193 16.995 15.8291H18.3514V14.4498H16.9958C16.9035 13.9579 16.7131 13.5011 16.4427 13.1024L17.3987 12.1472L16.423 11.1724L15.467 12.1276C15.0682 11.8571 14.6123 11.6683 14.122 11.5736V10.218H12.7419V11.5736C12.2517 11.6692 11.7949 11.8571 11.3969 12.1276L10.4409 11.1724L9.46445 12.1472L10.4196 13.1024C10.15 13.5011 9.96042 13.9579 9.86648 14.4498H8.51172V15.8291H9.86652ZM13.4316 16.6429C12.6006 16.6429 11.9265 15.9704 11.9265 15.1394C11.9265 14.3085 12.6006 13.6351 13.4316 13.6351C14.2634 13.6351 14.9367 14.3084 14.9367 15.1394C14.9359 15.9704 14.2626 16.6429 13.4316 16.6429Z" fill="#111918"/>
</svg>
