<svg width="34" height="78" viewBox="0 0 34 78" fill="none" xmlns="http://www.w3.org/2000/svg">
<path d="M20.5607 62.4334H13.5644C7.28562 62.4334 2.14844 57.2962 2.14844 51.0175V26.8983C2.14844 20.6196 7.28562 15.4824 13.5644 15.4824H20.5607C26.8395 15.4824 31.9767 20.6196 31.9767 26.8983V51.0175C31.9767 57.2962 26.8395 62.4334 20.5607 62.4334Z" stroke="#E1E42A" stroke-width="3" stroke-miterlimit="10" stroke-linecap="round" stroke-linejoin="round"/>
<path d="M17.167 34.1962H16.955C15.5447 34.1962 14.3906 33.0422 14.3906 31.6317V23.9912C14.3906 22.5808 15.5446 21.4268 16.955 21.4268H17.167C18.5773 21.4268 19.7314 22.5807 19.7314 23.9912V31.6317C19.7314 33.0422 18.5774 34.1962 17.167 34.1962Z" stroke="#E1E42A" stroke-width="3" stroke-miterlimit="10" stroke-linecap="round" stroke-linejoin="round"/>
<path d="M23.7235 69.4021L17.1328 75.9928" stroke="#E1E42A" stroke-width="3" stroke-miterlimit="10" stroke-linecap="round" stroke-linejoin="round"/>
<path d="M10.4883 69.4021L17.0789 75.9928" stroke="#E1E42A" stroke-width="3" stroke-miterlimit="10" stroke-linecap="round" stroke-linejoin="round"/>
<path d="M10.4883 8.59074L17.0789 2" stroke="#E1E42A" stroke-width="3" stroke-miterlimit="10" stroke-linecap="round" stroke-linejoin="round"/>
<path d="M23.7235 8.59074L17.1328 2" stroke="#E1E42A" stroke-width="3" stroke-miterlimit="10" stroke-linecap="round" stroke-linejoin="round"/>
</svg>
