<svg width="54" height="54" viewBox="0 0 54 54" fill="none" xmlns="http://www.w3.org/2000/svg">
<path d="M48.9375 16.875H40.5V20.25H48.9375V30.375H37.125V33.75H42.1875V37.3646C40.5968 37.7754 39.2104 38.7521 38.2884 40.1119C37.3663 41.4716 36.9718 43.121 37.1788 44.7508C37.3858 46.3806 38.1801 47.879 39.4129 48.965C40.6456 50.0511 42.2321 50.6503 43.875 50.6503C45.5179 50.6503 47.1044 50.0511 48.3372 48.965C49.5699 47.879 50.3642 46.3806 50.5712 44.7508C50.7782 43.121 50.3837 41.4716 49.4617 40.1119C48.5396 38.7521 47.1533 37.7754 45.5625 37.3646V33.75H48.9375C49.8323 33.7488 50.69 33.3928 51.3227 32.7602C51.9553 32.1275 52.3113 31.2697 52.3125 30.375V20.25C52.3115 19.3552 51.9556 18.4974 51.3229 17.8646C50.6902 17.2319 49.8323 16.876 48.9375 16.875ZM47.25 43.875C47.25 44.5425 47.0521 45.195 46.6812 45.75C46.3104 46.3051 45.7833 46.7376 45.1666 46.9931C44.5499 47.2485 43.8713 47.3154 43.2166 47.1851C42.5619 47.0549 41.9605 46.7335 41.4885 46.2615C41.0165 45.7895 40.6951 45.1881 40.5649 44.5334C40.4346 43.8787 40.5015 43.2001 40.7569 42.5834C41.0124 41.9667 41.4449 41.4396 42 41.0688C42.555 40.6979 43.2075 40.5 43.875 40.5C44.7698 40.5012 45.6275 40.8572 46.2602 41.4898C46.8928 42.1225 47.2488 42.9803 47.25 43.875Z" fill="#E1E42A"/>
<path d="M32.0625 10.125H23.625V13.5H32.0625V23.625H20.25V27H25.3125V37.3646C23.7218 37.7754 22.3354 38.7521 21.4134 40.1119C20.4913 41.4716 20.0968 43.121 20.3038 44.7508C20.5108 46.3806 21.3051 47.879 22.5379 48.965C23.7706 50.0511 25.3571 50.6503 27 50.6503C28.6429 50.6503 30.2294 50.0511 31.4622 48.965C32.6949 47.879 33.4892 46.3806 33.6962 44.7508C33.9032 43.121 33.5087 41.4716 32.5867 40.1119C31.6646 38.7521 30.2783 37.7754 28.6875 37.3646V27H32.0625C32.9573 26.999 33.8152 26.6431 34.4479 26.0104C35.0806 25.3776 35.4365 24.5198 35.4375 23.625V13.5C35.4365 12.6052 35.0806 11.7474 34.4479 11.1146C33.8152 10.4819 32.9573 10.126 32.0625 10.125ZM30.375 43.875C30.375 44.5425 30.1771 45.195 29.8062 45.7501C29.4354 46.3051 28.9083 46.7377 28.2916 46.9931C27.6749 47.2485 26.9963 47.3154 26.3416 47.1852C25.6869 47.0549 25.0855 46.7335 24.6135 46.2615C24.1415 45.7895 23.8201 45.1881 23.6899 44.5334C23.5596 43.8787 23.6265 43.2001 23.8819 42.5834C24.1374 41.9667 24.57 41.4396 25.125 41.0688C25.68 40.6979 26.3325 40.5 27 40.5C27.8948 40.5012 28.7525 40.8572 29.3852 41.4898C30.0178 42.1225 30.3738 42.9803 30.375 43.875Z" fill="#E1E42A"/>
<path d="M15.1875 3.375H5.0625C4.16767 3.37589 3.30974 3.73176 2.677 4.3645C2.04426 4.99724 1.68839 5.85517 1.6875 6.75V16.875C1.68839 17.7698 2.04426 18.6278 2.677 19.2605C3.30974 19.8932 4.16767 20.2491 5.0625 20.25H8.4375V37.3646C6.84676 37.7754 5.46043 38.7521 4.53836 40.1119C3.61629 41.4716 3.22179 43.121 3.4288 44.7508C3.63581 46.3806 4.43013 47.879 5.66286 48.965C6.89559 50.0511 8.48209 50.6503 10.125 50.6503C11.7679 50.6503 13.3544 50.0511 14.5871 48.965C15.8199 47.879 16.6142 46.3806 16.8212 44.7508C17.0282 43.121 16.6337 41.4716 15.7116 40.1119C14.7896 38.7521 13.4032 37.7754 11.8125 37.3646V20.25H15.1875C16.0823 20.2491 16.9403 19.8932 17.573 19.2605C18.2057 18.6278 18.5616 17.7698 18.5625 16.875V6.75C18.5616 5.85517 18.2057 4.99724 17.573 4.3645C16.9403 3.73176 16.0823 3.37589 15.1875 3.375ZM13.5 43.875C13.5 44.5425 13.3021 45.195 12.9312 45.7501C12.5604 46.3051 12.0333 46.7377 11.4166 46.9931C10.7999 47.2485 10.1213 47.3154 9.46657 47.1852C8.81188 47.0549 8.21052 46.7335 7.73851 46.2615C7.26651 45.7895 6.94507 45.1881 6.81485 44.5334C6.68462 43.8787 6.75146 43.2001 7.00691 42.5834C7.26235 41.9667 7.69493 41.4396 8.24995 41.0688C8.80497 40.6979 9.45749 40.5 10.125 40.5C11.0198 40.501 11.8776 40.8569 12.5104 41.4897C13.1431 42.1224 13.499 42.9802 13.5 43.875ZM5.0625 16.875V6.75H15.1875L15.19 16.875H5.0625Z" fill="#E1E42A"/>
</svg>
