<svg width="12" height="12" viewBox="0 0 12 12" fill="none" xmlns="http://www.w3.org/2000/svg">
<path d="M5.24894 0.927053C5.54829 0.00574207 6.8517 0.00573969 7.15106 0.92705L7.8165 2.97508C7.95037 3.3871 8.33433 3.66606 8.76756 3.66606H10.921C11.8897 3.66606 12.2925 4.90568 11.5088 5.47508L9.76661 6.74083C9.41612 6.99547 9.26946 7.44684 9.40334 7.85886L10.0688 9.90689C10.3681 10.8282 9.31365 11.5943 8.52994 11.0249L6.78779 9.75917C6.4373 9.50453 5.9627 9.50453 5.61221 9.75917L3.87006 11.0249C3.08635 11.5943 2.03187 10.8282 2.33122 9.90689L2.99666 7.85886C3.13054 7.44684 2.98388 6.99547 2.63339 6.74083L0.891237 5.47508C0.107523 4.90568 0.510297 3.66606 1.47902 3.66606H3.63244C4.06567 3.66606 4.44962 3.3871 4.5835 2.97508L5.24894 0.927053Z" fill="#FFB300"/>
</svg>
