<svg width="51" height="47" viewBox="0 0 51 47" fill="none" xmlns="http://www.w3.org/2000/svg">
<path d="M44.5751 2H6.07551C5.7163 1.99994 5.36779 2.12504 5.08742 2.35466C4.80705 2.58431 4.61153 2.90478 4.53309 3.26328L1.65234 14.3745C1.65234 15.6587 2.15115 16.8904 3.03908 17.7985C3.92699 18.7066 5.13124 19.2167 6.38694 19.2167C7.64264 19.2167 8.84688 18.7066 9.73479 17.7985C10.6227 16.8904 11.1215 15.6587 11.1215 14.3745C11.1215 15.6587 11.6204 16.8904 12.5083 17.7985C13.3962 18.7066 14.6004 19.2167 15.8561 19.2167C17.1118 19.2167 18.3161 18.7066 19.204 17.7985C20.0919 16.8904 20.5907 15.6587 20.5907 14.3745C20.5907 15.6587 21.0896 16.8904 21.9775 17.7985C22.8653 18.7066 24.0696 19.2167 25.3253 19.2167C26.5811 19.2167 27.7854 18.7066 28.6731 17.7985C29.5611 16.8904 30.0599 15.6587 30.0599 14.3745C30.0599 15.6587 30.5588 16.8904 31.4467 17.7985C32.3344 18.7066 33.5388 19.2167 34.7945 19.2167C36.0502 19.2167 37.2546 18.7066 38.1423 17.7985C39.0302 16.8904 39.5291 15.6587 39.5291 14.3745C39.5291 15.6587 40.0279 16.8904 40.9159 17.7985C41.8036 18.7066 43.0079 19.2167 44.2637 19.2167C45.5194 19.2167 46.7237 18.7066 47.6115 17.7985C48.4994 16.8904 48.9983 15.6587 48.9983 14.3745L46.1153 3.26328C46.0379 2.90476 45.8427 2.58412 45.5627 2.35439C45.2825 2.12467 44.9341 1.99963 44.5751 2Z" stroke="#E1E42A" stroke-width="3" stroke-linecap="round" stroke-linejoin="round"/>
<path d="M5.41954 25.6727C5.41954 24.7813 4.69689 24.0586 3.80547 24.0586C2.91406 24.0586 2.19141 24.7813 2.19141 25.6727H5.41954ZM48.4613 25.6727C48.4613 24.7813 47.7386 24.0586 46.8472 24.0586C45.9558 24.0586 45.2332 24.7813 45.2332 25.6727H48.4613ZM2.19141 25.6727V40.7373H5.41954V25.6727H2.19141ZM8.10965 46.6555H42.543V43.4274H8.10965V46.6555ZM48.4613 40.7373V25.6727H45.2332V40.7373H48.4613ZM42.543 46.6555C45.8116 46.6555 48.4613 44.0059 48.4613 40.7373H45.2332C45.2332 42.2231 44.0289 43.4274 42.543 43.4274V46.6555ZM2.19141 40.7373C2.19141 44.0059 4.8411 46.6555 8.10965 46.6555V43.4274C6.62393 43.4274 5.41954 42.2231 5.41954 40.7373H2.19141Z" fill="#E1E42A"/>
<path d="M19.9425 27.8232H13.4862C12.8919 27.8232 12.4102 28.305 12.4102 28.8993V35.3556C12.4102 35.9498 12.8919 36.4316 13.4862 36.4316H19.9425C20.5367 36.4316 21.0185 35.9498 21.0185 35.3556V28.8993C21.0185 28.305 20.5367 27.8232 19.9425 27.8232Z" stroke="#E1E42A" stroke-width="3"/>
<path d="M38.2412 45.0412V31.0526C38.2412 30.4584 37.7593 29.9766 37.1651 29.9766H30.7089C30.1147 29.9766 29.6328 30.4584 29.6328 31.0526V45.0412" stroke="#E1E42A" stroke-width="3"/>
</svg>
