<svg width="52" height="52" viewBox="0 0 52 52" fill="none" xmlns="http://www.w3.org/2000/svg">
<path d="M18.7995 49.9987H33.1991C45.1988 49.9987 49.9987 45.1988 49.9987 33.1991V18.7995C49.9987 6.79987 45.1988 2 33.1991 2H18.7995C6.79987 2 2 6.79987 2 18.7995V33.1991C2 45.1988 6.79987 49.9987 18.7995 49.9987Z" stroke="#E1E42A" stroke-width="3" stroke-linecap="round" stroke-linejoin="round"/>
<path d="M34.5664 41.599V32.2393" stroke="#E1E42A" stroke-width="3" stroke-miterlimit="10" stroke-linecap="round" stroke-linejoin="round"/>
<path d="M34.5664 15.0803V10.4004" stroke="#E1E42A" stroke-width="3" stroke-miterlimit="10" stroke-linecap="round" stroke-linejoin="round"/>
<path d="M34.5679 27.5598C38.014 27.5598 40.8078 24.7661 40.8078 21.32C40.8078 17.8737 38.014 15.0801 34.5679 15.0801C31.1216 15.0801 28.3281 17.8737 28.3281 21.32C28.3281 24.7661 31.1216 27.5598 34.5679 27.5598Z" stroke="#E1E42A" stroke-width="3" stroke-miterlimit="10" stroke-linecap="round" stroke-linejoin="round"/>
<path d="M17.4297 41.5988V36.9189" stroke="#E1E42A" stroke-width="3" stroke-miterlimit="10" stroke-linecap="round" stroke-linejoin="round"/>
<path d="M17.4297 19.7601V10.4004" stroke="#E1E42A" stroke-width="3" stroke-miterlimit="10" stroke-linecap="round" stroke-linejoin="round"/>
<path d="M17.4312 36.9191C20.8774 36.9191 23.6712 34.1253 23.6712 30.6793C23.6712 27.2332 20.8774 24.4395 17.4312 24.4395C13.9851 24.4395 11.1914 27.2332 11.1914 30.6793C11.1914 34.1253 13.9851 36.9191 17.4312 36.9191Z" stroke="#E1E42A" stroke-width="3" stroke-miterlimit="10" stroke-linecap="round" stroke-linejoin="round"/>
</svg>
