<svg width="38" height="29" viewBox="0 0 38 29" fill="none" xmlns="http://www.w3.org/2000/svg">
<path d="M33.6754 0.475754C33.2691 0.211826 32.8045 0.0521549 32.3224 0.0107764C31.8403 -0.0306021 31.3554 0.047579 30.9104 0.238447L16.3296 6.005C15.9844 6.14607 15.6152 6.21861 15.2425 6.21857H5.90796C5.12452 6.21857 4.37316 6.5311 3.81918 7.08739C3.2652 7.64369 2.95398 8.39818 2.95398 9.1849V9.42221H0V16.5414H2.95398V16.8499C2.97249 17.6242 3.29187 18.3606 3.84385 18.9015C4.39584 19.4425 5.13665 19.7453 5.90796 19.745L9.45274 27.2914C9.69277 27.7996 10.0707 28.2295 10.543 28.5317C11.0154 28.8339 11.563 28.9962 12.1231 29H13.6119C14.3913 28.9937 15.1366 28.6785 15.6855 28.1228C16.2343 27.5672 16.5423 26.8163 16.5423 26.0337V20.0298L30.9104 25.7964C31.2639 25.9376 31.6408 26.0101 32.0211 26.0099C32.6113 26.0004 33.1859 25.819 33.6754 25.4879C34.0641 25.2243 34.3847 24.8716 34.6107 24.459C34.8367 24.0463 34.9616 23.5856 34.9751 23.1148V2.92001C34.973 2.43713 34.8534 1.96208 34.6269 1.53612C34.4004 1.11016 34.0738 0.746165 33.6754 0.475754ZM13.5883 9.1849V16.8499H5.90796V9.1849H13.5883ZM13.5883 26.0337H12.0995L9.19279 19.745H13.5883V26.0337ZM17.4167 17.2059C17.1361 17.0619 16.8435 16.9428 16.5423 16.8499V9.01879C16.8406 8.95698 17.1332 8.86965 17.4167 8.75775L32.0211 2.92001V23.0436L17.4167 17.2059ZM35.046 10.0155V15.9481C35.8295 15.9481 36.5808 15.6356 37.1348 15.0793C37.6888 14.523 38 13.7685 38 12.9818C38 12.1951 37.6888 11.4406 37.1348 10.8843C36.5808 10.328 35.8295 10.0155 35.046 10.0155Z" fill="#262626"/>
</svg>
