<svg width="41" height="37" viewBox="0 0 41 37" fill="none" xmlns="http://www.w3.org/2000/svg">
<path d="M20.3056 17.1563C24.6207 17.1563 26.8788 10.7568 26.8788 7.32596C26.8788 3.28661 23.9295 0 20.3056 0C16.6805 0 13.7305 3.28661 13.7305 7.32596C13.7305 10.7562 15.9887 17.1563 20.3056 17.1563ZM20.3056 2.56466C22.5196 2.56466 24.3142 4.6959 24.3142 7.32596C24.3142 9.95474 22.5196 14.5916 20.3056 14.5916C18.0904 14.5916 16.2958 9.95474 16.2958 7.32596C16.2958 4.6959 18.0904 2.56466 20.3056 2.56466Z" fill="#262626"/>
<path d="M26.9079 21.6405C26.4623 21.3212 25.9372 21.1782 25.4114 21.1782C24.9338 21.1782 24.4548 21.3218 24.0342 21.5898C22.8994 22.3137 21.61 22.7003 20.3039 22.7003C18.9985 22.7003 17.7085 22.3208 16.5736 21.5969C16.1524 21.3289 15.6741 21.1981 15.1958 21.1981C14.6706 21.1981 14.1455 21.3597 13.6999 21.6796C10.3947 24.0538 8.41992 29.8795 8.41992 34.215C8.41992 35.6314 9.56825 36.7015 10.9846 36.7015H29.6252C31.0415 36.7015 32.1898 35.6314 32.1898 34.215C32.1886 29.8795 30.2138 24.0147 26.9079 21.6405ZM10.9833 34.1368C10.9833 30.2898 12.6587 25.5067 15.1945 23.6858C16.6967 24.6412 18.4407 25.1926 20.3033 25.1926C22.1665 25.1926 23.9111 24.6418 25.4114 23.6858C27.9473 25.5067 29.6239 30.2898 29.6239 34.1368H10.9833Z" fill="#262626"/>
<path d="M17.817 26.3197C17.4284 26.1632 17.0457 25.9651 16.6815 25.733C16.4603 25.5919 16.1756 25.5996 15.9627 25.7529C13.9982 27.1654 13.1211 29.2305 13.1211 32.4486C13.1211 32.8031 13.4083 33.0897 13.7623 33.0897C14.1168 33.0897 14.4034 32.8031 14.4034 32.4486C14.4034 29.8448 14.9997 28.2008 16.3821 27.048C16.6937 27.2231 17.013 27.3782 17.3374 27.509C17.667 27.6405 18.0401 27.4827 18.1722 27.1538C18.3043 26.8249 18.1459 26.4524 17.817 26.3197Z" fill="#262626"/>
<path d="M20.3025 26.8039C20.0877 26.8039 19.8755 26.7923 19.6652 26.7731C19.3126 26.7385 19.0003 27.0001 18.9676 27.3527C18.9349 27.7054 19.1946 28.0176 19.5472 28.0503C19.7966 28.0734 20.048 28.0862 20.3025 28.0862C20.6565 28.0862 20.9437 27.7996 20.9437 27.445C20.9437 27.0905 20.6565 26.8039 20.3025 26.8039Z" fill="#262626"/>
<path d="M35.0945 22.1023C34.729 21.8907 34.2462 21.8875 33.8641 22.0677C33.6967 22.1465 33.0665 22.3081 32.7279 22.3947C32.3003 22.5062 31.9303 22.5954 31.6706 22.6941C31.0077 22.9442 30.673 23.6725 30.9224 24.3355C31.1712 24.9978 31.9098 25.312 32.574 25.0651C32.7048 25.0158 33.0729 24.8805 33.3691 24.8055C33.7147 24.7151 34.0122 24.558 34.268 24.483C36.2742 26.082 37.8143 30.2906 38.2041 32.8553H34.5854C33.8775 32.8553 33.303 33.4298 33.303 34.1376C33.303 34.8455 33.8775 35.42 34.5854 35.42H39.5826C40.2905 35.42 40.865 35.0038 40.865 34.2954C40.865 30.6285 38.617 24.1521 35.0945 22.1023Z" fill="#262626"/>
<path d="M8.70831 24.3494C8.95708 23.6864 8.62111 22.9427 7.95815 22.6939C7.87672 22.6631 7.82222 22.6125 7.67731 22.4983C7.51959 22.3759 7.30416 22.1887 7.00537 22.0329C6.61619 21.8302 6.15006 21.8027 5.76985 22.0239C2.24793 24.0737 0 30.6283 0 34.2951C0 35.003 0.574484 35.4191 1.28233 35.4191H3.80852C4.51637 35.4191 5.09085 34.8446 5.09085 34.1368C5.09085 33.4289 4.51637 32.8544 3.80852 32.8544H2.6602C3.03912 30.2898 4.50355 26.3094 6.42704 24.6225C6.59503 24.7341 6.79956 25.0053 7.05667 25.1015C7.72091 25.3515 8.4589 25.013 8.70831 24.3494Z" fill="#262626"/>
<path d="M10.6258 19.0778C10.7534 19.0939 10.8964 19.1029 11.0496 19.1029C12.1402 19.1029 13.7996 18.6412 14.9633 16.896C15.3563 16.3067 15.1967 15.5104 14.6074 15.118C14.0189 14.7256 13.2225 14.8853 12.8295 15.4739C12.0575 16.6324 11.0259 16.5446 10.9368 16.5324C10.8682 16.5209 10.7983 16.5157 10.7284 16.5157C9.74164 16.5157 8.00216 13.0567 8.00216 10.5324C8.00216 8.61403 9.22486 7.05343 10.7284 7.05343C11.4362 7.05343 12.0107 6.47895 12.0107 5.7711C12.0107 5.06325 11.4362 4.48877 10.7284 4.48877C7.81109 4.48877 5.4375 7.20026 5.4375 10.5324C5.4375 13.5132 7.40459 18.9637 10.6258 19.0778Z" fill="#262626"/>
<path d="M25.886 15.1174C25.2961 15.5098 25.1371 16.3062 25.5301 16.8954C26.6932 18.6419 28.3525 19.1023 29.4438 19.1023C29.5977 19.1023 29.7407 19.0933 29.8683 19.0773C33.0888 18.9631 35.0566 13.5126 35.0566 10.5312C35.0566 7.19904 32.683 4.48755 29.7657 4.48755C29.0572 4.48755 28.4833 5.06203 28.4833 5.76988C28.4833 6.47773 29.0572 7.05221 29.7657 7.05221C31.2686 7.05221 32.4919 8.61281 32.4919 10.5312C32.4919 13.0561 30.7524 16.5145 29.7657 16.5145C29.6958 16.5145 29.6253 16.5203 29.5567 16.5312C29.5464 16.535 28.4654 16.6735 27.6646 15.4726C27.2709 14.884 26.4752 14.7231 25.886 15.1174Z" fill="#262626"/>
</svg>
