<svg width="48" height="48" viewBox="0 0 48 48" fill="none" xmlns="http://www.w3.org/2000/svg">
<path d="M15.0449 19.5058C15.0449 14.5825 19.0361 10.5913 23.9594 10.5913C28.8827 10.5913 32.8739 14.5825 32.8739 19.5058V28.4203C32.8739 33.3435 28.8827 37.3348 23.9594 37.3348C19.0361 37.3348 15.0449 33.3435 15.0449 28.4203V19.5058Z" stroke="#262626" stroke-width="3.5"/>
<path d="M16.1562 19.5056H31.7566" stroke="#262626" stroke-width="3.5" stroke-linecap="round"/>
<path d="M23.957 19.5058V10.5913" stroke="#262626" stroke-width="3.5" stroke-linecap="round"/>
<path d="M34.419 2.05197C33.59 1.6459 32.5887 1.98875 32.1826 2.81775C31.7766 3.64675 32.1193 4.64801 32.9484 5.05408L34.419 2.05197ZM19.1959 0.111624C8.23647 2.33971 0 12.0948 0 23.7776H3.34293C3.34293 13.6968 10.448 5.30141 19.8619 3.38754L19.1959 0.111624ZM0 23.7776C0 37.0982 10.7132 47.9207 23.9577 47.9207V44.5777C12.5855 44.5777 3.34293 35.2781 3.34293 23.7776H0ZM23.9577 47.9207C37.2022 47.9207 47.9154 37.0982 47.9154 23.7776H44.5724C44.5724 35.2781 35.3299 44.5777 23.9577 44.5777V47.9207ZM22.2862 5.8002V17.036H25.6291V5.8002H22.2862ZM47.9154 23.7776C47.9154 14.2262 42.4102 5.96641 34.419 2.05197L32.9484 5.05408C39.8272 8.42371 44.5724 15.5394 44.5724 23.7776H47.9154ZM19.8619 3.38754C20.9929 3.15757 22.2862 4.10812 22.2862 5.8002H25.6291C25.6291 2.52798 22.8911 -0.639602 19.1959 0.111624L19.8619 3.38754Z" fill="#262626"/>
</svg>
