<svg width="40" height="40" viewBox="0 0 40 40" fill="none" xmlns="http://www.w3.org/2000/svg">
<path d="M4.10875 35.8898C6.21751 37.9986 9.61148 37.9986 16.3995 37.9986H23.5992C30.3871 37.9986 33.7812 37.9986 35.8899 35.8898C37.9987 33.7812 37.9987 30.3871 37.9987 23.5992C37.9987 21.4936 37.9987 19.7147 37.9357 18.1994M35.8899 11.3085C33.7812 9.19971 30.3871 9.19971 23.5992 9.19971H16.3995C9.61148 9.19971 6.21751 9.19971 4.10875 11.3085C2 13.4172 2 16.8113 2 23.5992C2 25.7047 2 27.4836 2.06293 28.999" stroke="#262626" stroke-width="3" stroke-linecap="round"/>
<path d="M19.9986 2C23.3925 2 25.0895 2 26.1439 3.05438C27.1983 4.10875 27.1983 5.80574 27.1983 9.19973M13.8532 3.05438C12.7988 4.10875 12.7988 5.80574 12.7988 9.19973" stroke="#262626" stroke-width="3" stroke-linecap="round"/>
<path d="M20.0003 29.5989C21.9885 29.5989 23.6001 28.2558 23.6001 26.5991C23.6001 24.9423 21.9885 23.5991 20.0003 23.5991C18.0121 23.5991 16.4004 22.256 16.4004 20.5992C16.4004 18.9425 18.0121 17.5994 20.0003 17.5994M20.0003 29.5989C18.0121 29.5989 16.4004 28.2558 16.4004 26.5991M20.0003 29.5989V30.7989M20.0003 17.5994V16.3994M20.0003 17.5994C21.9885 17.5994 23.6001 18.9425 23.6001 20.5992" stroke="#262626" stroke-width="3" stroke-linecap="round"/>
</svg>
