<svg width="36" height="40" viewBox="0 0 36 40" fill="none" xmlns="http://www.w3.org/2000/svg">
<path d="M29.9994 39.9999C33.1554 39.9999 35.7137 37.4415 35.7137 34.2856C35.7137 31.1297 33.1554 28.5713 29.9994 28.5713C26.8435 28.5713 24.2852 31.1297 24.2852 34.2856C24.2852 37.4415 26.8435 39.9999 29.9994 39.9999Z" fill="#262626"/>
<path d="M9.99972 15.7144H7.14258V18.5715H9.99972V15.7144Z" fill="#262626"/>
<path d="M9.99972 22.8572H7.14258V25.7143H9.99972V22.8572Z" fill="#262626"/>
<path d="M9.99972 30H7.14258V32.8571H9.99972V30Z" fill="#262626"/>
<path d="M24.286 15.7144H12.8574V18.5715H24.286V15.7144Z" fill="#262626"/>
<path d="M24.286 22.8572H12.8574V25.7143H24.286V22.8572Z" fill="#262626"/>
<path d="M18.5719 30H12.8574V32.8571H18.5719V30Z" fill="#262626"/>
<path d="M2.85714 37.1429V7.14286H7.14286V11.4286H24.2857V7.14286H28.5714V22.8571H31.4286V7.14286C31.4286 6.3851 31.1276 5.65837 30.5917 5.12255C30.0559 4.58673 29.3292 4.28571 28.5714 4.28571H24.2857V2.85714C24.2857 2.09938 23.9847 1.37266 23.4489 0.836838C22.9131 0.301019 22.1863 0 21.4286 0H10C9.24224 0 8.51551 0.301019 7.9797 0.836838C7.44388 1.37266 7.14286 2.09938 7.14286 2.85714V4.28571H2.85714C2.09938 4.28571 1.37266 4.58673 0.836838 5.12255C0.301019 5.65837 0 6.3851 0 7.14286V37.1429C0 37.9006 0.301019 38.6273 0.836838 39.1632C1.37266 39.699 2.09938 40 2.85714 40H18.5714V37.1429H2.85714ZM10 2.85714H21.4286V8.57143H10V2.85714Z" fill="#262626"/>
</svg>
