<svg width="52" height="17" viewBox="0 0 52 17" fill="none" xmlns="http://www.w3.org/2000/svg">
<path d="M22.6486 0.923472V6.25923C22.8938 6.25923 23.139 6.23386 23.3758 6.17467C23.9593 6.03937 24.4836 5.74341 24.8979 5.32907C25.4729 4.75406 25.8281 3.95919 25.8281 3.08822V0.923472H22.6571H22.6486ZM23.8409 7.23167C23.1137 7.81514 22.6401 8.71148 22.6401 9.71774V16.491H25.8112V6.53828C25.067 6.53828 24.3736 6.80042 23.8324 7.23167H23.8409ZM36.525 8.14492C36.4319 8.10264 36.3305 8.06882 36.2374 8.02654C35.5525 7.77286 34.8253 7.60374 34.1234 7.44307C33.7091 7.35006 33.2863 7.24859 32.8804 7.13866C32.2377 6.96108 31.612 6.77505 31.0285 6.50445C30.4366 6.23386 30.1745 5.7265 30.2421 5.01619C30.2929 4.57648 30.5381 4.23824 30.8594 3.99301C31.0708 3.83235 31.3245 3.71396 31.5528 3.63786C31.9502 3.51947 32.3899 3.45183 32.8128 3.45183C33.2356 3.45183 33.7514 3.50256 34.2841 3.74779C34.5716 3.87463 34.8422 4.06912 35.0705 4.33125C35.2988 4.59339 35.4849 4.92318 35.6286 5.32061C35.6286 5.33752 35.6455 5.37134 35.654 5.42208C35.7977 5.97172 35.8485 6.14084 36.0937 6.14084H36.1444L36.1698 6.13239C36.2036 6.13239 36.2459 6.11548 36.2797 6.11548C36.6772 6.04783 37.0746 5.97172 37.4889 5.89562L38.3937 5.7265L38.6728 5.65885L38.622 5.38826C38.6136 5.34598 38.6051 5.3037 38.5967 5.26142C38.5882 5.19377 38.529 4.89781 38.4191 4.51729C38.2331 3.91691 37.8948 3.09667 37.3114 2.53857C37.0239 2.26798 36.6772 2.0143 36.2966 1.79444C36.2205 1.75216 36.136 1.70143 36.0514 1.65915L36.0176 1.64223H36.0007C35.4849 1.3801 34.9268 1.18561 34.3348 1.06722C34.115 1.02494 33.912 0.991121 33.7175 0.974209C33.4639 0.948841 33.2017 0.931929 32.9396 0.931929C32.2716 0.931929 31.6035 1.01649 30.9524 1.17715C29.3965 1.57459 28.0266 2.44556 27.4263 3.7647C27.2741 4.09449 27.1726 4.45809 27.1218 4.85553C27.0542 5.45591 27.1388 6.04783 27.3586 6.60593C27.7138 7.4769 28.4072 8.25485 29.3796 8.81295C29.6333 8.9567 29.9039 9.092 30.1998 9.20193C30.5043 9.3034 30.8425 9.40487 31.2653 9.52326C31.4598 9.58245 31.6543 9.63319 31.8572 9.68392C32.1363 9.76003 32.4238 9.83613 32.7028 9.92069C32.9819 9.9968 33.2609 10.0644 33.5315 10.1321C33.9628 10.2336 34.3687 10.3266 34.7576 10.4788C34.8676 10.5211 34.9775 10.5718 35.0705 10.6225C35.7216 10.9608 36.0176 11.4681 35.9415 12.1277C35.8738 12.7619 35.451 13.2101 34.8845 13.4807C34.4025 13.7174 33.819 13.8274 33.244 13.8274C32.669 13.8274 32.7789 13.8105 32.5591 13.7682C32.0348 13.6752 31.5951 13.5399 31.223 13.3792C29.6502 12.6858 29.3542 11.5104 29.2443 11.0623C29.2105 10.927 29.1936 10.8593 29.1428 10.7917L29.0329 10.6479L28.6862 10.724C28.1197 10.8509 27.5785 10.9692 27.0457 11.0876L26.4876 11.206L26.5299 11.4766C26.6145 12.0009 26.7413 12.4913 26.9104 12.948C26.9443 13.041 26.9781 13.1255 27.0204 13.2101C27.5954 14.4785 28.6947 15.4171 30.2337 15.9498C30.2506 15.9498 30.2675 15.9668 30.2844 15.9668C30.3098 15.9752 30.3351 15.9837 30.3436 15.9837C30.5634 16.0513 30.7918 16.1021 31.0116 16.1528C31.3499 16.2289 31.6881 16.2881 32.0179 16.3219C32.2969 16.3557 32.5929 16.3726 32.8889 16.3726C35.6624 16.3726 38.7743 15.0958 39.0533 12.3053C39.0618 12.2207 39.0702 12.1277 39.0702 12.0432C39.0702 12.0178 39.0702 11.9924 39.0702 11.9586V11.9332C39.0956 10.1659 38.2331 8.89751 36.508 8.17029L36.525 8.14492ZM21.0335 2.23416C21.0335 2.2257 21.0335 2.21724 21.0335 2.20879C21.0166 2.11577 20.9912 2.02276 20.9574 1.9382C20.9574 1.9382 20.9574 1.92128 20.9489 1.91283C20.9151 1.82827 20.8728 1.74371 20.8221 1.6676C20.8221 1.65915 20.8136 1.65069 20.8052 1.64223C20.7544 1.56613 20.6953 1.49003 20.6361 1.42238C20.6276 1.41392 20.6192 1.40547 20.6107 1.39701C20.543 1.32936 20.4669 1.26171 20.3824 1.20252C20.2133 1.08414 20.0188 0.999576 19.8074 0.957296C19.7144 0.940384 19.6129 0.931929 19.5199 0.931929C19.4269 0.931929 19.503 0.931929 19.4945 0.931929H19.486C19.393 0.931929 19.3085 0.940384 19.2154 0.957296C19.207 0.957296 19.1985 0.957296 19.1901 0.957296C19.0971 0.974208 19.0125 0.999575 18.9195 1.0334C18.911 1.0334 18.9026 1.0334 18.8941 1.04186C18.8603 1.05031 18.8349 1.06722 18.8011 1.08414C18.7504 1.1095 18.6996 1.13487 18.6489 1.1687C18.6404 1.1687 18.632 1.17715 18.6151 1.18561C18.539 1.23635 18.4713 1.29554 18.3952 1.35473C18.3868 1.36319 18.3783 1.37164 18.3698 1.3801C18.3022 1.44775 18.2346 1.52385 18.1754 1.60841C18.1754 1.60841 18.1754 1.60841 18.1754 1.61687H18.1669V1.63378L17.2198 3.01211L14.0488 7.6122L12.5267 9.81922V2.51321C12.5267 2.42019 12.5183 2.33563 12.5014 2.24261C12.5014 2.23416 12.5014 2.2257 12.5014 2.21724C12.4844 2.12423 12.4591 2.03121 12.4253 1.94665C12.4253 1.94665 12.4253 1.92974 12.4168 1.92128C12.383 1.83672 12.3407 1.75216 12.29 1.67606C12.29 1.6676 12.2815 1.65915 12.273 1.65069C12.2223 1.57459 12.1631 1.49848 12.1039 1.43083C12.1039 1.42238 12.087 1.41392 12.087 1.40546C12.0194 1.33782 11.9433 1.27017 11.8587 1.21098C11.6896 1.09259 11.4951 1.00803 11.2837 0.965752C11.1907 0.94884 11.0892 0.940383 10.9962 0.940383C10.9032 0.940383 10.9793 0.940383 10.9708 0.940383H10.9624C10.8693 0.940383 10.7763 0.94884 10.6918 0.965752C10.6833 0.965752 10.6749 0.965752 10.6664 0.965752C10.5734 0.982664 10.4804 1.00803 10.3958 1.04186C10.3874 1.04186 10.3789 1.04186 10.3704 1.05031C10.2859 1.08414 10.2098 1.12642 10.1252 1.17715C10.1168 1.17715 10.1083 1.18561 10.0914 1.19406C10.0153 1.2448 9.93918 1.30399 9.87153 1.36318C9.86308 1.37164 9.85462 1.3801 9.84616 1.38855C9.77006 1.4562 9.71087 1.5323 9.65168 1.61687C9.65168 1.61687 9.65168 1.61687 9.65168 1.62532H9.64322V1.64223L8.69614 3.02057L5.52513 7.62065L4.00304 9.82768L1.11108 14.0219C0.925048 14.284 0.832031 14.5969 0.832031 14.9182C0.832031 15.2395 0.840488 15.1042 0.8574 15.1888C0.8574 15.1973 0.8574 15.2057 0.8574 15.2142C0.874312 15.3072 0.899681 15.4002 0.933505 15.4848C0.933505 15.4848 0.933504 15.5017 0.94196 15.5101C0.975784 15.5947 1.01806 15.6792 1.0688 15.7554C1.0688 15.7638 1.07726 15.7723 1.08571 15.7807C1.13645 15.8568 1.19564 15.9329 1.25483 16.0006C1.26329 16.009 1.27175 16.0175 1.2802 16.0259C1.34785 16.0936 1.42395 16.1612 1.50851 16.2204C1.56771 16.2627 1.63536 16.2965 1.69455 16.3304C1.71146 16.3304 1.71992 16.3388 1.73683 16.3473C1.79602 16.3726 1.86367 16.4065 1.93132 16.4234C1.93977 16.4234 1.94823 16.4234 1.94823 16.4234C2.00742 16.4403 2.06661 16.4572 2.13426 16.4657C2.15117 16.4657 2.16809 16.4657 2.19345 16.4741C2.25265 16.4826 2.32029 16.4826 2.38794 16.491H2.42177C2.4725 16.491 2.52324 16.491 2.57397 16.4826C2.59089 16.4826 2.6078 16.4826 2.62471 16.4826C2.66699 16.4826 2.70927 16.4657 2.75155 16.4572C2.76846 16.4572 2.78538 16.4487 2.80229 16.4403C2.84457 16.4318 2.87839 16.4149 2.92067 16.4065C2.93758 16.4065 2.9545 16.3896 2.97141 16.3896C3.01369 16.3726 3.04751 16.3557 3.08134 16.3388C3.09825 16.3304 3.11516 16.3219 3.13207 16.3135C3.18281 16.2881 3.22509 16.2627 3.26737 16.2289C3.28428 16.2204 3.29274 16.212 3.30965 16.2035C3.34347 16.1782 3.3773 16.1528 3.41958 16.119C3.43649 16.1021 3.4534 16.0851 3.47031 16.0767C3.49568 16.0513 3.52951 16.0259 3.55488 15.9921C3.57179 15.9752 3.58024 15.9583 3.59716 15.9414C3.63098 15.9076 3.6648 15.8653 3.69017 15.823C3.69017 15.823 3.69863 15.8145 3.70708 15.8061H3.71554V15.7892L5.50822 13.1847L8.67923 8.58464L9.35572 7.60374V14.9098C9.35572 15.0028 9.36417 15.0958 9.38108 15.1803C9.38108 15.1888 9.38108 15.1973 9.38108 15.2057C9.39799 15.2987 9.42336 15.3917 9.45719 15.4763C9.45719 15.4763 9.45719 15.4932 9.46564 15.5017C9.49947 15.5862 9.54175 15.6708 9.59248 15.7469C9.59248 15.7554 9.60094 15.7638 9.6094 15.7723C9.66013 15.8484 9.71087 15.9245 9.77852 15.9921C9.78697 16.0006 9.79543 16.009 9.80388 16.0175C9.87153 16.0851 9.94764 16.1528 10.0322 16.212C10.0914 16.2543 10.159 16.2881 10.2267 16.3219C10.2351 16.3219 10.2521 16.3304 10.269 16.3388C10.3366 16.3642 10.3958 16.398 10.4719 16.4149C10.4719 16.4149 10.4804 16.4149 10.4888 16.4149C10.548 16.4318 10.6072 16.4487 10.6749 16.4572H10.734C10.7932 16.4741 10.8609 16.4741 10.9201 16.4826H10.9539C11.0046 16.4826 11.0554 16.4826 11.1061 16.4741C11.123 16.4741 11.1399 16.4741 11.1568 16.4741C11.1991 16.4741 11.2414 16.4572 11.2837 16.4487C11.3006 16.4487 11.3175 16.4403 11.3344 16.4318C11.3767 16.4234 11.419 16.4065 11.4528 16.398C11.4697 16.398 11.4866 16.3811 11.5035 16.3811C11.5374 16.3642 11.5797 16.3473 11.6135 16.3304C11.6304 16.3219 11.6473 16.3135 11.6642 16.305C11.7149 16.2796 11.7572 16.2543 11.7995 16.2204C11.8164 16.212 11.8249 16.2035 11.8418 16.1951C11.8756 16.1697 11.9179 16.1443 11.9517 16.1105C11.9686 16.0936 11.9855 16.0767 12.0025 16.0682C12.0278 16.0429 12.0532 16.0175 12.087 15.9837C12.1039 15.9668 12.1208 15.9498 12.1293 15.9329C12.1631 15.8991 12.1885 15.8568 12.2223 15.8145C12.2223 15.8145 12.2308 15.8061 12.2392 15.7976H12.2477V15.7807L12.5098 15.4002L14.0404 13.1847L17.2114 8.58464L17.8879 7.59528V16.3388C17.8879 16.3896 17.8879 16.4403 17.8963 16.4826H21.0504C21.0504 16.4403 21.0589 16.3896 21.0589 16.3388V2.49629C21.0589 2.40328 21.0504 2.31872 21.0335 2.2257V2.23416ZM46.4185 2.15805C46.2409 2.05658 46.0295 2.02276 45.8266 2.04812C45.7674 2.04812 45.7082 2.06503 45.649 2.08195C45.2769 2.19188 45.0655 2.49629 45.0317 2.94446C45.0317 2.97829 45.0317 3.01211 45.0317 3.04594C45.0317 3.52793 45.3277 3.88308 45.7589 3.96764C45.8181 3.9761 45.8773 3.98455 45.945 3.98455C46.0464 3.96764 46.1564 3.95073 46.2494 3.92536C46.6215 3.80698 46.8329 3.50256 46.8498 3.05439C46.8667 2.59777 46.6806 2.30181 46.4101 2.1496L46.4185 2.15805ZM46.4185 2.15805C46.2409 2.05658 46.0295 2.02276 45.8266 2.04812C45.7674 2.04812 45.7082 2.06503 45.649 2.08195C45.2769 2.19188 45.0655 2.49629 45.0317 2.94446C45.0317 2.97829 45.0317 3.01211 45.0317 3.04594C45.0317 3.52793 45.3277 3.88308 45.7589 3.96764C45.8181 3.9761 45.8773 3.98455 45.945 3.98455C46.0464 3.96764 46.1564 3.95073 46.2494 3.92536C46.6215 3.80698 46.8329 3.50256 46.8498 3.05439C46.8667 2.59777 46.6806 2.30181 46.4101 2.1496L46.4185 2.15805ZM42.4526 2.03121C42.4104 2.03967 42.3765 2.05658 42.3342 2.06504C42.0129 2.18342 41.8184 2.47938 41.7846 2.89373C41.7423 3.40954 42.0298 3.80698 42.4526 3.91691C42.6217 3.95919 42.8078 3.95919 42.9938 3.89999C43.3828 3.78161 43.6111 3.44337 43.6111 2.97829C43.6111 2.3018 43.1037 1.879 42.4526 2.03121ZM42.4442 3.91691C42.6133 3.95919 42.7993 3.95919 42.9854 3.89999C43.3743 3.78161 43.6027 3.44337 43.6027 2.97829C43.6027 2.3018 43.0953 1.879 42.4442 2.03121C42.4019 2.03967 42.3681 2.05658 42.3258 2.06504C42.0045 2.18342 41.81 2.47938 41.7761 2.89373C41.7339 3.40954 42.0214 3.80698 42.4442 3.91691ZM46.4185 2.15805C46.2409 2.05658 46.0295 2.02276 45.8266 2.04812C45.7674 2.04812 45.7082 2.06503 45.649 2.08195C45.2769 2.19188 45.0655 2.49629 45.0317 2.94446C45.0317 2.97829 45.0317 3.01211 45.0317 3.04594C45.0317 3.52793 45.3277 3.88308 45.7589 3.96764C45.8181 3.9761 45.8773 3.98455 45.945 3.98455C46.0464 3.96764 46.1564 3.95073 46.2494 3.92536C46.6215 3.80698 46.8329 3.50256 46.8498 3.05439C46.8667 2.59777 46.6806 2.30181 46.4101 2.1496L46.4185 2.15805ZM50.4859 1.57459C50.1138 2.60622 49.7333 3.64631 49.3612 4.67795C49.2175 5.06693 48.9384 5.40517 48.5748 5.59966C48.3296 5.7265 48.0928 5.76878 47.8391 5.74341C47.6785 5.7265 47.5178 5.69267 47.3571 5.63348C47.4248 5.43899 47.4924 5.25296 47.5601 5.06693C47.7377 5.11766 47.9068 5.17686 48.0844 5.13458C48.4311 5.05847 48.634 4.83016 48.7608 4.51729C48.7777 4.47501 48.7608 4.40736 48.7355 4.35662C48.4057 3.44337 48.0674 2.53012 47.7376 1.60841C47.7207 1.56613 47.7038 1.51539 47.6869 1.46466H48.3211C48.5748 2.17496 48.8369 2.90218 49.0906 3.62095C49.0991 3.62095 49.1075 3.62095 49.1244 3.62095C49.3781 2.90218 49.6318 2.19188 49.8939 1.46466H50.5197C50.5112 1.50694 50.5028 1.54076 50.4943 1.57459H50.4859ZM46.8667 4.51729V4.23824C46.8413 4.23824 46.8244 4.23824 46.8159 4.23824C46.5369 4.54265 46.0295 4.65258 45.5475 4.54265C45.26 4.47501 44.9894 4.3228 44.7865 4.08603C44.7189 4.00992 44.6597 3.91691 44.6089 3.81543C44.499 3.59558 44.4398 3.3419 44.4313 3.08822C44.4144 2.72461 44.5074 2.35254 44.685 2.05658C44.7188 2.00584 44.7527 1.95511 44.7865 1.91283C45.0994 1.54076 45.6997 1.33782 46.2325 1.4562C46.3678 1.49003 46.4946 1.53231 46.613 1.60841C46.6722 1.64224 46.7314 1.69297 46.7906 1.74371C46.8075 1.75216 46.8159 1.76062 46.8582 1.79444V1.4562H47.4586V4.50883H46.8667V4.51729ZM41.1758 1.46466H41.7677C41.7677 1.52385 41.7677 1.57459 41.7761 1.64223C41.8269 1.61687 41.8776 1.5915 41.9199 1.56613C42.0214 1.50694 42.1313 1.46466 42.2497 1.43929C42.5626 1.35473 42.9008 1.36319 43.1968 1.46466C43.3405 1.51539 43.4843 1.57459 43.6027 1.6676C43.6618 1.70988 43.7126 1.75216 43.7633 1.8029C44.0255 2.06504 44.1523 2.38637 44.1946 2.74998C44.2369 3.14741 44.1777 3.52793 43.9747 3.88308C43.8732 4.0522 43.7464 4.17904 43.6027 4.28897C43.4335 4.40736 43.2475 4.48346 43.0446 4.52574C42.8585 4.56802 42.664 4.56802 42.4695 4.55111C42.4695 4.55111 42.4695 4.55111 42.4611 4.55111C42.2159 4.52574 41.996 4.43273 41.7677 4.30589V5.44745H41.1589V1.48157L41.1758 1.46466ZM40.1526 0.898102V6.24232H48.3634C50.1138 6.23386 51.5344 4.81325 51.5344 3.05439V0.889648H40.1526V0.898102ZM42.4526 2.03121C42.4104 2.03967 42.3765 2.05658 42.3342 2.06504C42.0129 2.18342 41.8184 2.47938 41.7846 2.89373C41.7423 3.40954 42.0298 3.80698 42.4526 3.91691C42.6217 3.95919 42.8078 3.95919 42.9938 3.89999C43.3828 3.78161 43.6111 3.44337 43.6111 2.97829C43.6111 2.3018 43.1037 1.879 42.4526 2.03121ZM46.4185 2.15805C46.2409 2.05658 46.0295 2.02276 45.8266 2.04812C45.7674 2.04812 45.7082 2.06503 45.649 2.08195C45.2769 2.19188 45.0655 2.49629 45.0317 2.94446C45.0317 2.97829 45.0317 3.01211 45.0317 3.04594C45.0317 3.52793 45.3277 3.88308 45.7589 3.96764C45.8181 3.9761 45.8773 3.98455 45.945 3.98455C46.0464 3.96764 46.1564 3.95073 46.2494 3.92536C46.6215 3.80698 46.8329 3.50256 46.8498 3.05439C46.8667 2.59777 46.6806 2.30181 46.4101 2.1496L46.4185 2.15805ZM46.4185 2.15805C46.2409 2.05658 46.0295 2.02276 45.8266 2.04812C45.7674 2.04812 45.7082 2.06503 45.649 2.08195C45.2769 2.19188 45.0655 2.49629 45.0317 2.94446C45.0317 2.97829 45.0317 3.01211 45.0317 3.04594C45.0317 3.52793 45.3277 3.88308 45.7589 3.96764C45.8181 3.9761 45.8773 3.98455 45.945 3.98455C46.0464 3.96764 46.1564 3.95073 46.2494 3.92536C46.6215 3.80698 46.8329 3.50256 46.8498 3.05439C46.8667 2.59777 46.6806 2.30181 46.4101 2.1496L46.4185 2.15805ZM42.4526 2.03121C42.4104 2.03967 42.3765 2.05658 42.3342 2.06504C42.0129 2.18342 41.8184 2.47938 41.7846 2.89373C41.7423 3.40954 42.0298 3.80698 42.4526 3.91691C42.6217 3.95919 42.8078 3.95919 42.9938 3.89999C43.3828 3.78161 43.6111 3.44337 43.6111 2.97829C43.6111 2.3018 43.1037 1.879 42.4526 2.03121ZM42.4526 2.03121C42.4104 2.03967 42.3765 2.05658 42.3342 2.06504C42.0129 2.18342 41.8184 2.47938 41.7846 2.89373C41.7423 3.40954 42.0298 3.80698 42.4526 3.91691C42.6217 3.95919 42.8078 3.95919 42.9938 3.89999C43.3828 3.78161 43.6111 3.44337 43.6111 2.97829C43.6111 2.3018 43.1037 1.879 42.4526 2.03121Z" fill="#5B26C7"/>
</svg>
